<svg role="img" xmlns="http://www.w3.org/2000/svg" viewBox="0 0 18.04 12.73"><title>Email icon</title><path d="M1.56 12.73h15.08A1.46 1.46 0 0 0 18 11.21V1.33A1.45 1.45 0 0 0 16.48 0H1.38A1.47 1.47 0 0 0 0 1.54v9.68a2.19 2.19 0 0 0 0 .36 1.48 1.48 0 0 0 1.56 1.15zm3.81-6.51L2.15 3.09a.75.75 0 0 1-.25-.73.8.8 0 0 1 .15-.29.72.72 0 0 1 1-.09l.18.16 5.28 5.11a.54.54 0 0 0 .15.15.63.63 0 0 0 .87-.15l5.33-5.17a.75.75 0 0 1 .72-.25.82.82 0 0 1 .36.18.71.71 0 0 1 0 1l-.13.12-3.16 3.1-.19.15.17.17 3.21 3.11a.7.7 0 0 1 .28.67.68.68 0 0 1-.47.56.74.74 0 0 1-.75-.16l-.69-.66-2.6-2.52a.86.86 0 0 1-.1-.16c-.45.43-.85.79-1.24 1.15l-.1.1a1.74 1.74 0 0 1-2.46-.1c-.36-.37-.71-.75-1.16-1.15l-.14.13-3.25 3.14a.7.7 0 0 1-.79.2.68.68 0 0 1-.48-.57.71.71 0 0 1 .26-.65l3.21-3.11.16-.16z"/></svg>
