<?xml version="1.0" encoding="utf-8"?>
<!-- Generator: Adobe Illustrator 17.0.0, SVG Export Plug-In . SVG Version: 6.00 Build 0)  -->
<!DOCTYPE svg PUBLIC "-//W3C//DTD SVG 1.1//EN" "http://www.w3.org/Graphics/SVG/1.1/DTD/svg11.dtd">
<svg version="1.1" id="Capa_1" xmlns="http://www.w3.org/2000/svg" xmlns:xlink="http://www.w3.org/1999/xlink" x="0px" y="0px"
	 width="408px" height="172.3px" viewBox="0 0 408 172.3" enable-background="new 0 0 408 172.3" xml:space="preserve">
<circle fill="none" stroke="#222221" stroke-width="2.5" stroke-miterlimit="10" cx="191.05" cy="60.45" r="19.6"/>
<path fill="none" stroke="#222221" stroke-width="2.5" stroke-miterlimit="10" d="M171.45,99.65c0-10.8,8.8-19.6,19.6-19.6
	s19.6,8.8,19.6,19.6"/>
<circle fill="none" stroke="#222221" stroke-width="2.5" stroke-miterlimit="10" cx="191.05" cy="20.85" r="19.6"/>
<path fill="none" stroke="#222221" stroke-width="2.5" stroke-miterlimit="10" d="M210.65,170.05c0-4.2,0-168.8,0-168.8v-0.6"/>
<path fill="none" stroke="#222221" stroke-width="2.5" stroke-miterlimit="10" d="M249.85,170.05c0-4.2,0-168.8,0-168.8v-0.6"/>
<path fill="none" stroke="#222221" stroke-width="2.5" stroke-miterlimit="10" d="M171.55,0.55c0,4.2,0,169.4,0,169.4v0.6"/>
<circle fill="none" stroke="#222221" stroke-width="2.5" stroke-miterlimit="10" cx="230.25" cy="110.45" r="19.6"/>
<path fill="none" stroke="#222221" stroke-width="2.5" stroke-miterlimit="10" d="M249.85,71.25c0,10.8-8.8,19.6-19.6,19.6
	c-10.8,0-19.6-8.8-19.6-19.6"/>
<circle fill="none" stroke="#222221" stroke-width="2.5" stroke-miterlimit="10" cx="230.25" cy="150.05" r="19.6"/>
<circle fill="none" stroke="#222221" stroke-width="2.5" stroke-miterlimit="10" cx="269.45" cy="60.45" r="19.6"/>
<circle fill="none" stroke="#222221" stroke-width="2.5" stroke-miterlimit="10" cx="269.45" cy="99.65" r="19.6"/>
<path fill="none" stroke="#222221" stroke-width="2.5" stroke-miterlimit="10" d="M249.85,138.85c0-10.8,8.8-19.6,19.6-19.6
	c10.8,0,19.6,8.8,19.6,19.6"/>
<circle fill="none" stroke="#222221" stroke-width="2.5" stroke-miterlimit="10" cx="269.45" cy="20.85" r="19.6"/>
<circle fill="none" stroke="#222221" stroke-width="2.5" stroke-miterlimit="10" cx="347.95" cy="60.45" r="19.6"/>
<circle fill="none" stroke="#222221" stroke-width="2.5" stroke-miterlimit="10" cx="347.95" cy="99.65" r="19.6"/>
<path fill="none" stroke="#222221" stroke-width="2.5" stroke-miterlimit="10" d="M328.35,138.85c0-10.8,8.8-19.6,19.6-19.6
	c10.8,0,19.6,8.8,19.6,19.6"/>
<circle fill="none" stroke="#222221" stroke-width="2.5" stroke-miterlimit="10" cx="347.95" cy="20.85" r="19.6"/>
<path fill="none" stroke="#222221" stroke-width="2.5" stroke-miterlimit="10" d="M289.05,170.05c0-4.2,0-168.8,0-168.8v-0.6"/>
<path fill="none" stroke="#222221" stroke-width="2.5" stroke-miterlimit="10" d="M328.35,170.05c0-4.2,0-168.8,0-168.8v-0.6"/>
<circle fill="none" stroke="#222221" stroke-width="2.5" stroke-miterlimit="10" cx="308.75" cy="110.45" r="19.6"/>
<path fill="none" stroke="#222221" stroke-width="2.5" stroke-miterlimit="10" d="M328.35,71.25c0,10.8-8.8,19.6-19.6,19.6
	c-10.8,0-19.6-8.8-19.6-19.6"/>
<circle fill="none" stroke="#222221" stroke-width="2.5" stroke-miterlimit="10" cx="308.75" cy="150.05" r="19.6"/>
<path fill="none" stroke="#222221" stroke-width="2.5" stroke-miterlimit="10" d="M367.55,170.05c0-4.2,0-168.8,0-168.8v-0.6"/>
<circle fill="none" stroke="#222221" stroke-width="2.5" stroke-miterlimit="10" cx="387.15" cy="110.45" r="19.6"/>
<path fill="none" stroke="#222221" stroke-width="2.5" stroke-miterlimit="10" d="M406.75,71.25c0,10.8-8.8,19.6-19.6,19.6
	c-10.8,0-19.6-8.8-19.6-19.6"/>
<circle fill="none" stroke="#222221" stroke-width="2.5" stroke-miterlimit="10" cx="387.15" cy="150.05" r="19.6"/>
<path fill="none" stroke="#222221" stroke-width="2.5" stroke-miterlimit="10" d="M1.55,1.35c-0.1,0-0.2,0-0.3,0v84.9h85.1
	C86.35,39.35,48.35,1.35,1.55,1.35z"/>
<path fill="none" stroke="#222221" stroke-width="2.5" stroke-miterlimit="10" d="M86.15,171.05c0.1,0,0.2,0,0.3,0v-84.9H1.35
	C1.25,133.05,39.25,171.05,86.15,171.05z"/>
<path fill="none" stroke="#222221" stroke-width="2.5" stroke-miterlimit="10" d="M86.65,1.35c-0.1,0-0.2,0-0.3,0v84.9h85.1
	C171.55,39.35,133.55,1.35,86.65,1.35z"/>
<path fill="none" stroke="#222221" stroke-width="2.5" stroke-miterlimit="10" d="M171.25,171.05c0.1,0,0.2,0,0.3,0v-84.9h-85.1
	C86.35,133.05,124.35,171.05,171.25,171.05z"/>
</svg>
