<?xml version="1.0" encoding="utf-8"?>
<!-- Generator: Adobe Illustrator 16.0.0, SVG Export Plug-In . SVG Version: 6.00 Build 0)  -->
<!DOCTYPE svg PUBLIC "-//W3C//DTD SVG 1.1//EN" "http://www.w3.org/Graphics/SVG/1.1/DTD/svg11.dtd" [
	<!ENTITY ns_extend "http://ns.adobe.com/Extensibility/1.0/">
	<!ENTITY ns_ai "http://ns.adobe.com/AdobeIllustrator/10.0/">
	<!ENTITY ns_graphs "http://ns.adobe.com/Graphs/1.0/">
	<!ENTITY ns_vars "http://ns.adobe.com/Variables/1.0/">
	<!ENTITY ns_imrep "http://ns.adobe.com/ImageReplacement/1.0/">
	<!ENTITY ns_sfw "http://ns.adobe.com/SaveForWeb/1.0/">
	<!ENTITY ns_custom "http://ns.adobe.com/GenericCustomNamespace/1.0/">
	<!ENTITY ns_adobe_xpath "http://ns.adobe.com/XPath/1.0/">
]>
<svg version="1.1" xmlns:x="&ns_extend;" xmlns:i="&ns_ai;" xmlns:graph="&ns_graphs;"
	 xmlns="http://www.w3.org/2000/svg" xmlns:xlink="http://www.w3.org/1999/xlink" x="0px" y="0px" width="408.1523px"
	 height="171.998px" viewBox="0 0 408.1523 171.998" enable-background="new 0 0 408.1523 171.998" xml:space="preserve">
<metadata>
	<sfw  xmlns="&ns_sfw;">
		<slices></slices>
		<sliceSourceBounds  width="1025.2168" height="1864.792" y="-1353.79" x="-215" bottomLeftOrigin="true"></sliceSourceBounds>
	</sfw>
</metadata>
<g id="Слой_1">
	<g>
		<defs>
			<rect id="SVGID_1_" x="-616.9648" y="-1291.7324" width="1024" height="1864.792"/>
		</defs>
		<clipPath id="SVGID_2_">
			<use xlink:href="#SVGID_1_"  overflow="visible"/>
		</clipPath>
		
			<line display="none" clip-path="url(#SVGID_2_)" fill="none" stroke="#222221" stroke-width="2" stroke-miterlimit="10" x1="407.0352" y1="-517.9814" x2="-616.9639" y2="-517.9814"/>
		<path clip-path="url(#SVGID_2_)" fill="none" stroke="#222221" stroke-width="2" stroke-miterlimit="10" d="M171.2432,99.5439
			c0-10.8623,8.8066-19.6689,19.6699-19.6689c10.8623,0,19.6689,8.8066,19.6689,19.6689"/>
		
			<circle clip-path="url(#SVGID_2_)" fill="none" stroke="#222221" stroke-width="2" stroke-miterlimit="10" cx="190.9053" cy="60.1846" r="19.6045"/>
		
			<circle clip-path="url(#SVGID_2_)" fill="none" stroke="#222221" stroke-width="2" stroke-miterlimit="10" cx="190.9053" cy="20.6182" r="19.6045"/>
		<path clip-path="url(#SVGID_2_)" fill="none" stroke="#222221" stroke-width="2" stroke-miterlimit="10" d="M328.4541,72.5527
			c0,10.8633-8.8066,19.6699-19.6689,19.6699c-10.8633,0-19.6689-8.8066-19.6689-19.6699"/>
		
			<circle clip-path="url(#SVGID_2_)" fill="none" stroke="#222221" stroke-width="2" stroke-miterlimit="10" cx="308.7202" cy="111.8262" r="19.604"/>
		
			<circle clip-path="url(#SVGID_2_)" fill="none" stroke="#222221" stroke-width="2" stroke-miterlimit="10" cx="308.7202" cy="151.3936" r="19.604"/>
		<polyline clip-path="url(#SVGID_2_)" fill="none" stroke="#222221" stroke-width="2" stroke-miterlimit="10" points="
			210.499,173.001 210.499,-2.1055 210.499,-2.7471 		"/>
		<path clip-path="url(#SVGID_2_)" fill="none" stroke="#222221" stroke-width="2" stroke-miterlimit="10" d="M249.8477,72.5527
			c0,10.8633-8.8066,19.6699-19.6689,19.6699s-19.6689-8.8066-19.6689-19.6699"/>
		
			<circle clip-path="url(#SVGID_2_)" fill="none" stroke="#222221" stroke-width="2" stroke-miterlimit="10" cx="230.1865" cy="111.8262" r="19.6045"/>
		
			<circle clip-path="url(#SVGID_2_)" fill="none" stroke="#222221" stroke-width="2" stroke-miterlimit="10" cx="230.1865" cy="151.3936" r="19.6045"/>
		<polyline clip-path="url(#SVGID_2_)" fill="none" stroke="#222221" stroke-width="2" stroke-miterlimit="10" points="
			171.248,0.21 171.248,169.5713 171.248,170.1924 		"/>
		<polyline clip-path="url(#SVGID_2_)" fill="none" stroke="#222221" stroke-width="2" stroke-miterlimit="10" points="
			249.8477,-2.3916 249.8477,172.7139 249.8477,173.3555 		"/>
		<polyline clip-path="url(#SVGID_2_)" fill="none" stroke="#222221" stroke-width="2" stroke-miterlimit="10" points="
			328.457,0.1963 328.457,76.1162 328.457,76.3945 		"/>
		<path clip-path="url(#SVGID_2_)" fill="none" stroke="#222221" stroke-width="2" stroke-miterlimit="10" d="M249.8018,138.8359
			c0-10.8623,8.8066-19.6689,19.6699-19.6689c10.8623,0,19.6689,8.8066,19.6689,19.6689"/>
		
			<circle clip-path="url(#SVGID_2_)" fill="none" stroke="#222221" stroke-width="2" stroke-miterlimit="10" cx="269.4639" cy="60.1699" r="19.6045"/>
		
			<circle clip-path="url(#SVGID_2_)" fill="none" stroke="#222221" stroke-width="2" stroke-miterlimit="10" cx="269.4639" cy="99.4111" r="19.6045"/>
		
			<circle clip-path="url(#SVGID_2_)" fill="none" stroke="#222221" stroke-width="2" stroke-miterlimit="10" cx="269.4639" cy="20.6035" r="19.6045"/>
		<polyline clip-path="url(#SVGID_2_)" fill="none" stroke="#222221" stroke-width="2" stroke-miterlimit="10" points="
			289.1338,173.1816 289.1133,-1.9248 289.1133,-2.5664 		"/>
		<polyline clip-path="url(#SVGID_2_)" fill="none" stroke="#222221" stroke-width="2" stroke-miterlimit="10" points="
			328.5479,173.1816 328.5479,-1.9248 328.5479,-2.5664 		"/>
		<path clip-path="url(#SVGID_2_)" fill="none" stroke="#222221" stroke-width="2" stroke-miterlimit="10" d="M407.1523,72.5527
			c0,10.8633-8.8076,19.6699-19.6689,19.6699c-10.8633,0-19.6699-8.8066-19.6699-19.6699"/>
		
			<circle clip-path="url(#SVGID_2_)" fill="none" stroke="#222221" stroke-width="2" stroke-miterlimit="10" cx="387.418" cy="111.8262" r="19.6045"/>
		
			<circle clip-path="url(#SVGID_2_)" fill="none" stroke="#222221" stroke-width="2" stroke-miterlimit="10" cx="387.418" cy="151.3936" r="19.6045"/>
		<path clip-path="url(#SVGID_2_)" fill="none" stroke="#222221" stroke-width="2" stroke-miterlimit="10" d="M328.5,138.8359
			c0-10.8623,8.8066-19.6689,19.6689-19.6689s19.6699,8.8066,19.6699,19.6689"/>
		
			<circle clip-path="url(#SVGID_2_)" fill="none" stroke="#222221" stroke-width="2" stroke-miterlimit="10" cx="348.1621" cy="60.1699" r="19.6045"/>
		
			<circle clip-path="url(#SVGID_2_)" fill="none" stroke="#222221" stroke-width="2" stroke-miterlimit="10" cx="348.1621" cy="99.4111" r="19.6045"/>
		
			<circle clip-path="url(#SVGID_2_)" fill="none" stroke="#222221" stroke-width="2" stroke-miterlimit="10" cx="348.1621" cy="20.6035" r="19.6045"/>
		<polyline clip-path="url(#SVGID_2_)" fill="none" stroke="#222221" stroke-width="2" stroke-miterlimit="10" points="
			367.8115,173.1816 367.8115,-1.9248 367.8115,-2.5664 		"/>
		<path clip-path="url(#SVGID_2_)" fill="none" stroke="#222221" stroke-width="2" stroke-miterlimit="10" d="M1.2666,1.0439
			C1.1768,1.0439,1.0898,1.0498,1,1.0498v84.8525h85.124C86.124,39.0361,48.1328,1.0439,1.2666,1.0439z"/>
		<path clip-path="url(#SVGID_2_)" fill="none" stroke="#222221" stroke-width="2" stroke-miterlimit="10" d="M85.8594,170.7617
			c0.0889,0,0.1758-0.0068,0.2656-0.0068V85.9033H1C1,132.7686,38.9932,170.7617,85.8594,170.7617z"/>
		<path clip-path="url(#SVGID_2_)" fill="none" stroke="#222221" stroke-width="2" stroke-miterlimit="10" d="M86.3887,1.0439
			c-0.0889,0-0.1758,0.0059-0.2666,0.0059v84.8525h85.125C171.2471,39.0361,133.2539,1.0439,86.3887,1.0439z"/>
		<path clip-path="url(#SVGID_2_)" fill="none" stroke="#222221" stroke-width="2" stroke-miterlimit="10" d="M170.9814,170.7617
			c0.0898,0,0.1768-0.0068,0.2666-0.0068V85.9033H86.123C86.123,132.7686,124.1152,170.7617,170.9814,170.7617z"/>
	</g>
</g>
<g id="Слой_1__x28_копия_x29_">
	<g>
		<defs>
			<rect id="SVGID_3_" x="-615.7485" y="-1291.7324" width="1024.0005" height="1864.792"/>
		</defs>
		<clipPath id="SVGID_4_">
			<use xlink:href="#SVGID_3_"  overflow="visible"/>
		</clipPath>
		
			<line display="none" clip-path="url(#SVGID_4_)" fill="none" stroke="#222221" stroke-width="2" stroke-miterlimit="10" x1="407.0352" y1="-517.9814" x2="-616.9639" y2="-517.9814"/>
		<path clip-path="url(#SVGID_4_)" fill="none" stroke="#222221" stroke-width="2" stroke-miterlimit="10" d="M171.2432,99.5439
			c0-10.8623,8.8066-19.6689,19.6699-19.6689c10.8623,0,19.6689,8.8066,19.6689,19.6689"/>
		
			<circle clip-path="url(#SVGID_4_)" fill="none" stroke="#222221" stroke-width="2" stroke-miterlimit="10" cx="190.9053" cy="60.1846" r="19.6045"/>
		
			<circle clip-path="url(#SVGID_4_)" fill="none" stroke="#222221" stroke-width="2" stroke-miterlimit="10" cx="190.9053" cy="20.6182" r="19.6045"/>
		<path clip-path="url(#SVGID_4_)" fill="none" stroke="#222221" stroke-width="2" stroke-miterlimit="10" d="M328.4541,72.5527
			c0,10.8633-8.8066,19.6699-19.6689,19.6699c-10.8633,0-19.6689-8.8066-19.6689-19.6699"/>
		
			<circle clip-path="url(#SVGID_4_)" fill="none" stroke="#222221" stroke-width="2" stroke-miterlimit="10" cx="308.7202" cy="111.8262" r="19.604"/>
		
			<circle clip-path="url(#SVGID_4_)" fill="none" stroke="#222221" stroke-width="2" stroke-miterlimit="10" cx="308.7202" cy="151.3936" r="19.604"/>
		<polyline clip-path="url(#SVGID_4_)" fill="none" stroke="#222221" stroke-width="2" stroke-miterlimit="10" points="
			210.499,173.001 210.499,-2.1055 210.499,-2.7471 		"/>
		<path clip-path="url(#SVGID_4_)" fill="none" stroke="#222221" stroke-width="2" stroke-miterlimit="10" d="M249.8477,72.5527
			c0,10.8633-8.8066,19.6699-19.6689,19.6699s-19.6689-8.8066-19.6689-19.6699"/>
		
			<circle clip-path="url(#SVGID_4_)" fill="none" stroke="#222221" stroke-width="2" stroke-miterlimit="10" cx="230.1865" cy="111.8262" r="19.6045"/>
		
			<circle clip-path="url(#SVGID_4_)" fill="none" stroke="#222221" stroke-width="2" stroke-miterlimit="10" cx="230.1865" cy="151.3936" r="19.6045"/>
		<polyline clip-path="url(#SVGID_4_)" fill="none" stroke="#222221" stroke-width="2" stroke-miterlimit="10" points="
			171.248,0.21 171.248,169.5713 171.248,170.1924 		"/>
		<polyline clip-path="url(#SVGID_4_)" fill="none" stroke="#222221" stroke-width="2" stroke-miterlimit="10" points="
			249.8477,-2.3916 249.8477,172.7139 249.8477,173.3555 		"/>
		<polyline clip-path="url(#SVGID_4_)" fill="none" stroke="#222221" stroke-width="2" stroke-miterlimit="10" points="
			328.457,0.1963 328.457,76.1162 328.457,76.3945 		"/>
		<path clip-path="url(#SVGID_4_)" fill="none" stroke="#222221" stroke-width="2" stroke-miterlimit="10" d="M249.8018,138.8359
			c0-10.8623,8.8066-19.6689,19.6699-19.6689c10.8623,0,19.6689,8.8066,19.6689,19.6689"/>
		
			<circle clip-path="url(#SVGID_4_)" fill="none" stroke="#222221" stroke-width="2" stroke-miterlimit="10" cx="269.4639" cy="60.1699" r="19.6045"/>
		
			<circle clip-path="url(#SVGID_4_)" fill="none" stroke="#222221" stroke-width="2" stroke-miterlimit="10" cx="269.4639" cy="99.4111" r="19.6045"/>
		
			<circle clip-path="url(#SVGID_4_)" fill="none" stroke="#222221" stroke-width="2" stroke-miterlimit="10" cx="269.4639" cy="20.6035" r="19.6045"/>
		<polyline clip-path="url(#SVGID_4_)" fill="none" stroke="#222221" stroke-width="2" stroke-miterlimit="10" points="
			289.1338,173.1816 289.1133,-1.9248 289.1133,-2.5664 		"/>
		<polyline clip-path="url(#SVGID_4_)" fill="none" stroke="#222221" stroke-width="2" stroke-miterlimit="10" points="
			328.5479,173.1816 328.5479,-1.9248 328.5479,-2.5664 		"/>
		<path clip-path="url(#SVGID_4_)" fill="none" stroke="#222221" stroke-width="2" stroke-miterlimit="10" d="M407.1523,72.5527
			c0,10.8633-8.8076,19.6699-19.6689,19.6699c-10.8633,0-19.6699-8.8066-19.6699-19.6699"/>
		
			<circle clip-path="url(#SVGID_4_)" fill="none" stroke="#222221" stroke-width="2" stroke-miterlimit="10" cx="387.418" cy="111.8262" r="19.6045"/>
		
			<circle clip-path="url(#SVGID_4_)" fill="none" stroke="#222221" stroke-width="2" stroke-miterlimit="10" cx="387.418" cy="151.3936" r="19.6045"/>
		<path clip-path="url(#SVGID_4_)" fill="none" stroke="#222221" stroke-width="2" stroke-miterlimit="10" d="M328.5,138.8359
			c0-10.8623,8.8066-19.6689,19.6689-19.6689s19.6699,8.8066,19.6699,19.6689"/>
		
			<circle clip-path="url(#SVGID_4_)" fill="none" stroke="#222221" stroke-width="2" stroke-miterlimit="10" cx="348.1621" cy="60.1699" r="19.6045"/>
		
			<circle clip-path="url(#SVGID_4_)" fill="none" stroke="#222221" stroke-width="2" stroke-miterlimit="10" cx="348.1621" cy="99.4111" r="19.6045"/>
		
			<circle clip-path="url(#SVGID_4_)" fill="none" stroke="#222221" stroke-width="2" stroke-miterlimit="10" cx="348.1621" cy="20.6035" r="19.6045"/>
		
			<polyline display="none" clip-path="url(#SVGID_4_)" fill="none" stroke="#222221" stroke-width="2" stroke-miterlimit="10" points="
			406.8115,173.1816 406.8115,-1.9248 406.8115,-2.5664 		"/>
		<path clip-path="url(#SVGID_4_)" fill="none" stroke="#222221" stroke-width="2" stroke-miterlimit="10" d="M1.2666,1.0439
			C1.1768,1.0439,1.0898,1.0498,1,1.0498v84.8525h85.124C86.124,39.0361,48.1328,1.0439,1.2666,1.0439z"/>
		<path clip-path="url(#SVGID_4_)" fill="none" stroke="#222221" stroke-width="2" stroke-miterlimit="10" d="M85.8594,170.7617
			c0.0889,0,0.1758-0.0068,0.2656-0.0068V85.9033H1C1,132.7686,38.9932,170.7617,85.8594,170.7617z"/>
		<path clip-path="url(#SVGID_4_)" fill="none" stroke="#222221" stroke-width="2" stroke-miterlimit="10" d="M86.3887,1.0439
			c-0.0889,0-0.1758,0.0059-0.2666,0.0059v84.8525h85.125C171.2471,39.0361,133.2539,1.0439,86.3887,1.0439z"/>
		<path clip-path="url(#SVGID_4_)" fill="none" stroke="#222221" stroke-width="2" stroke-miterlimit="10" d="M170.9814,170.7617
			c0.0898,0,0.1768-0.0068,0.2666-0.0068V85.9033H86.123C86.123,132.7686,124.1152,170.7617,170.9814,170.7617z"/>
	</g>
</g>
</svg>
