<?xml version="1.0" encoding="utf-8"?>
<!-- Generator: Adobe Illustrator 16.0.0, SVG Export Plug-In . SVG Version: 6.00 Build 0)  -->
<!DOCTYPE svg PUBLIC "-//W3C//DTD SVG 1.1//EN" "http://www.w3.org/Graphics/SVG/1.1/DTD/svg11.dtd" [
	<!ENTITY ns_extend "http://ns.adobe.com/Extensibility/1.0/">
	<!ENTITY ns_ai "http://ns.adobe.com/AdobeIllustrator/10.0/">
	<!ENTITY ns_graphs "http://ns.adobe.com/Graphs/1.0/">
	<!ENTITY ns_vars "http://ns.adobe.com/Variables/1.0/">
	<!ENTITY ns_imrep "http://ns.adobe.com/ImageReplacement/1.0/">
	<!ENTITY ns_sfw "http://ns.adobe.com/SaveForWeb/1.0/">
	<!ENTITY ns_custom "http://ns.adobe.com/GenericCustomNamespace/1.0/">
	<!ENTITY ns_adobe_xpath "http://ns.adobe.com/XPath/1.0/">
]>
<svg version="1.1" id="Слой_1" xmlns:x="&ns_extend;" xmlns:i="&ns_ai;" xmlns:graph="&ns_graphs;"
	 xmlns="http://www.w3.org/2000/svg" xmlns:xlink="http://www.w3.org/1999/xlink" x="0px" y="0px" width="122.0039px"
	 height="261.3545px" viewBox="0 0 122.0039 261.3545" enable-background="new 0 0 122.0039 261.3545" xml:space="preserve">
<metadata>
	<sfw  xmlns="&ns_sfw;">
		<slices></slices>
		<sliceSourceBounds  width="125.8926" height="262.2046" x="354.5156" y="-126.1846" bottomLeftOrigin="true"></sliceSourceBounds>
	</sfw>
</metadata>
<g>
	<defs>
		<rect id="SVGID_1_" x="0.0225" width="122.1729" height="262.2046"/>
	</defs>
	<clipPath id="SVGID_2_">
		<use xlink:href="#SVGID_1_"  overflow="visible"/>
	</clipPath>
	<path clip-path="url(#SVGID_2_)" fill="none" stroke="#222221" stroke-width="1.5" stroke-miterlimit="10" d="M51.3994,121.4331
		c7.7012,0,13.9424,6.2432,13.9424,13.9434c0,7.7017-6.2412,13.9438-13.9424,13.9438"/>
	
		<circle clip-path="url(#SVGID_2_)" fill="none" stroke="#222221" stroke-width="1.5" stroke-miterlimit="10" cx="79.3008" cy="135.3716" r="13.8975"/>
	
		<circle clip-path="url(#SVGID_2_)" fill="none" stroke="#222221" stroke-width="1.5" stroke-miterlimit="10" cx="107.3496" cy="135.3716" r="13.8975"/>
	<path clip-path="url(#SVGID_2_)" fill="none" stroke="#222221" stroke-width="1.5" stroke-miterlimit="10" d="M70.5332,232.8784
		c-7.7012,0-13.9434-6.2422-13.9434-13.9429c0-7.7012,6.2422-13.9438,13.9434-13.9438"/>
	
		<circle clip-path="url(#SVGID_2_)" fill="none" stroke="#222221" stroke-width="1.5" stroke-miterlimit="10" cx="42.6924" cy="218.8892" r="13.8975"/>
	
		<circle clip-path="url(#SVGID_2_)" fill="none" stroke="#222221" stroke-width="1.5" stroke-miterlimit="10" cx="14.6436" cy="218.8892" r="13.8975"/>
	<polyline clip-path="url(#SVGID_2_)" fill="none" stroke="#222221" stroke-width="1.5" stroke-miterlimit="10" points="
		-0.7432,149.2612 123.5264,149.2612 123.9814,149.2612 	"/>
	<path clip-path="url(#SVGID_2_)" fill="none" stroke="#222221" stroke-width="1.5" stroke-miterlimit="10" d="M70.5332,177.1558
		c-7.7012,0-13.9434-6.2432-13.9434-13.9429c0-7.7021,6.2422-13.9438,13.9434-13.9438"/>
	
		<circle clip-path="url(#SVGID_2_)" fill="none" stroke="#222221" stroke-width="1.5" stroke-miterlimit="10" cx="42.6924" cy="163.2173" r="13.8975"/>
	
		<circle clip-path="url(#SVGID_2_)" fill="none" stroke="#222221" stroke-width="1.5" stroke-miterlimit="10" cx="14.6436" cy="163.2173" r="13.8975"/>
	<polyline clip-path="url(#SVGID_2_)" fill="none" stroke="#222221" stroke-width="1.5" stroke-miterlimit="10" points="
		121.8164,121.437 1.7568,121.437 1.3174,121.437 	"/>
	<polyline clip-path="url(#SVGID_2_)" fill="none" stroke="#222221" stroke-width="1.5" stroke-miterlimit="10" points="
		123.7295,177.1558 -0.5391,177.1558 -0.9941,177.1558 	"/>
	<polyline clip-path="url(#SVGID_2_)" fill="none" stroke="#222221" stroke-width="1.5" stroke-miterlimit="10" points="
		121.8262,232.8813 68.0068,232.8813 67.8096,232.8813 	"/>
	<path clip-path="url(#SVGID_2_)" fill="none" stroke="#222221" stroke-width="1.5" stroke-miterlimit="10" d="M23.5459,177.1226
		c7.7012,0.001,13.9424,6.2432,13.9424,13.9434c0,7.7017-6.2412,13.9438-13.9424,13.9438"/>
	
		<circle clip-path="url(#SVGID_2_)" fill="none" stroke="#222221" stroke-width="1.5" stroke-miterlimit="10" cx="79.3105" cy="191.061" r="13.8975"/>
	
		<circle clip-path="url(#SVGID_2_)" fill="none" stroke="#222221" stroke-width="1.5" stroke-miterlimit="10" cx="51.4932" cy="191.061" r="13.8975"/>
	
		<circle clip-path="url(#SVGID_2_)" fill="none" stroke="#222221" stroke-width="1.5" stroke-miterlimit="10" cx="107.3594" cy="191.061" r="13.8975"/>
	<polyline clip-path="url(#SVGID_2_)" fill="none" stroke="#222221" stroke-width="1.5" stroke-miterlimit="10" points="
		-0.8701,204.9907 123.3994,204.9907 123.8535,204.9907 	"/>
	<polyline clip-path="url(#SVGID_2_)" fill="none" stroke="#222221" stroke-width="1.5" stroke-miterlimit="10" points="
		-0.8701,260.7871 123.3994,260.7871 123.8535,205.5576 	"/>
	<polyline clip-path="url(#SVGID_2_)" fill="none" stroke="#222221" stroke-width="1.5" stroke-miterlimit="10" points="
		-0.8701,232.9448 123.3994,232.9448 123.8535,232.9448 	"/>
	<path clip-path="url(#SVGID_2_)" fill="none" stroke="#222221" stroke-width="1.5" stroke-miterlimit="10" d="M23.5459,232.9116
		c7.7012,0,13.9424,6.2422,13.9424,13.9434c0,7.7007-6.2412,13.9438-13.9424,13.9438"/>
	
		<circle clip-path="url(#SVGID_2_)" fill="none" stroke="#222221" stroke-width="1.5" stroke-miterlimit="10" cx="79.3105" cy="246.8496" r="13.897"/>
	
		<circle clip-path="url(#SVGID_2_)" fill="none" stroke="#222221" stroke-width="1.5" stroke-miterlimit="10" cx="51.3105" cy="246.8496" r="13.897"/>
	
		<circle display="none" clip-path="url(#SVGID_2_)" fill="none" stroke="#222221" stroke-width="1.5" stroke-miterlimit="10" cx="51.4932" cy="246.8496" r="13.897"/>
	
		<circle clip-path="url(#SVGID_2_)" fill="none" stroke="#222221" stroke-width="1.5" stroke-miterlimit="10" cx="107.3594" cy="246.8496" r="13.897"/>
	<path clip-path="url(#SVGID_2_)" fill="none" stroke="#222221" stroke-width="1.5" stroke-miterlimit="10" d="M121.2256,0.938
		c0-0.063-0.0039-0.125-0.0049-0.188H61.0693v60.3433C94.292,61.0933,121.2256,34.1611,121.2256,0.938z"/>
	<path clip-path="url(#SVGID_2_)" fill="none" stroke="#222221" stroke-width="1.5" stroke-miterlimit="10" d="M0.9141,60.9048
		c0,0.063,0.0039,0.126,0.0049,0.188h60.1514V0.75C27.8467,0.75,0.9141,27.6821,0.9141,60.9048z"/>
	<path clip-path="url(#SVGID_2_)" fill="none" stroke="#222221" stroke-width="1.5" stroke-miterlimit="10" d="M121.2256,61.2808
		c0-0.062-0.0039-0.125-0.0049-0.188H61.0693v60.3433C94.292,121.436,121.2256,94.5049,121.2256,61.2808z"/>
	<path clip-path="url(#SVGID_2_)" fill="none" stroke="#222221" stroke-width="1.5" stroke-miterlimit="10" d="M0.9141,121.2485
		c0,0.062,0.0039,0.125,0.0049,0.187h60.1514V61.0928C27.8467,61.0928,0.9141,88.0244,0.9141,121.2485z"/>
</g>
</svg>
