<?xml version="1.0" encoding="utf-8"?>
<!-- Generator: Adobe Illustrator 21.1.0, SVG Export Plug-In . SVG Version: 6.00 Build 0)  -->
<svg version="1.1" id="Capa_1" xmlns="http://www.w3.org/2000/svg" xmlns:xlink="http://www.w3.org/1999/xlink" x="0px" y="0px"
	 viewBox="0 0 1624.4 172.4" style="enable-background:new 0 0 1624.4 172.4;" xml:space="preserve">
<style type="text/css">
	.st0{fill:#222221;}
</style>
<g>
	<path class="st0" d="M171.3,172.5H170c-23,0-44.6-8.9-60.8-25.2c-11.7-11.7-19.6-26.2-23-42v67.2h-1.3c-23,0-44.6-8.9-60.8-25.2
		c-16-16-24.8-37.2-25-59.7h0V0.8h1.3c41,0,75.3,28.9,83.8,67.4V0.8h1.3c23,0,44.6,8.9,60.8,25.2c11.7,11.7,19.6,26.2,23,42v-5
		c-0.1-0.7-0.1-1.3-0.1-2s0-1.4,0.1-2V23.3c-0.1-0.7-0.1-1.3-0.1-2s0-1.4,0.1-2V1h2v11.2c3.4-6.8,10.4-11.5,18.5-11.5
		c8.2,0,15.3,4.8,18.6,11.7V1h2v70.6c0,10.3,8.3,18.6,18.6,18.6s18.6-8.3,18.6-18.6V1h2v11.3c3.3-6.9,10.4-11.7,18.6-11.7
		c8.2,0,15.3,4.8,18.6,11.7V1h2v70.6h0.1c0,10.3,8.3,18.6,18.6,18.6s18.6-8.3,18.6-18.6V1h2v11.3c3.3-6.9,10.4-11.7,18.6-11.7
		c8.2,0,15.3,4.8,18.6,11.7V1h2v70.6c0,10.3,8.3,18.6,18.6,18.6s18.6-8.3,18.6-18.6V1.1h2v169.4h-2v-11.2
		c-3.3,6.9-10.4,11.7-18.6,11.7s-15.3-4.8-18.6-11.7v11.1h-2v-31.2c0-10.3-8.3-18.6-18.6-18.6c-10.3,0-18.6,8.3-18.6,18.6v31.2h-2
		v-11.1c-3.3,6.9-10.4,11.7-18.6,11.7c-8.3,0-15.4-4.9-18.7-12v11.4h-2v-31.2c0-10.3-8.3-18.6-18.6-18.6c-10.3,0-18.6,8.3-18.6,18.6
		v31.2h-2v-11.1c-3.3,6.9-10.4,11.7-18.6,11.7s-15.3-4.8-18.6-11.7v11.1h-2V100c0-10.3-8.3-18.6-18.6-18.6
		c-9.6,0-17.5,7.3-18.5,16.6V172.5z M1.1,87.6c0.2,22,8.9,42.7,24.4,58.3c15.7,15.7,36.5,24.4,58.7,24.6V87.6H1.1z M86.2,87.6
		c0.2,22,8.9,42.7,24.4,58.3c15.7,15.7,36.5,24.4,58.7,24.6V100h-0.1c0-0.7,0-1.4,0.1-2V87.6H86.2z M367.3,150.5
		c0,10.3,8.3,18.6,18.6,18.6s18.6-8.3,18.6-18.6c0-10.3-8.3-18.6-18.6-18.6S367.3,140.2,367.3,150.5z M307.5,131.8
		c-10.3,0-18.6,8.3-18.6,18.6c0,10.3,8.3,18.6,18.6,18.6s18.6-8.3,18.6-18.6C326.1,140.2,317.8,131.8,307.5,131.8z M210.4,150.5
		c0,10.3,8.3,18.6,18.6,18.6s18.6-8.3,18.6-18.6c0-10.3-8.3-18.6-18.6-18.6S210.4,140.2,210.4,150.5z M288.8,139.2v2.6
		c2.5-5.4,7.2-9.5,13-11.2c-5.8-1.7-10.5-5.8-13-11.2V139.2z M313.2,130.7c5.7,1.6,10.4,5.7,12.9,10.9v-21.9
		C323.6,125,318.9,129,313.2,130.7z M234.7,130.7c5.7,1.6,10.4,5.7,12.9,10.9v-21.9C245.1,125,240.4,129,234.7,130.7z M391.6,130.7
		c5.7,1.6,10.4,5.7,12.9,10.9v-21.9C402,125,397.3,129,391.6,130.7z M367.3,139.2v2.3c2.5-5.3,7.2-9.3,12.9-10.9
		c-5.7-1.6-10.4-5.7-12.9-10.9V139.2z M210.4,119.7v21.9c2.5-5.3,7.2-9.3,12.9-10.9C217.6,129,212.9,125,210.4,119.7z M328.1,108.9
		v21.5c2.4-5.1,6.9-9,12.3-10.7C334.9,117.9,330.5,114,328.1,108.9z M249.6,108.9v21.5c2.4-5.1,6.9-9,12.3-10.7
		C256.4,117.9,252,114,249.6,108.9z M353,119.7c5.4,1.8,9.8,5.7,12.3,10.7v-21.5C362.9,114,358.4,117.9,353,119.7z M274.5,119.7
		c5.4,1.8,9.8,5.7,12.3,10.7v-21.5C284.4,114,279.9,117.9,274.5,119.7z M367.3,110.8c0,10.3,8.3,18.6,18.6,18.6s18.6-8.3,18.6-18.6
		c0-10.3-8.3-18.6-18.6-18.6S367.3,100.6,367.3,110.8z M307.5,92.2c-10.3,0-18.6,8.3-18.6,18.6c0,10.3,8.3,18.6,18.6,18.6
		s18.6-8.3,18.6-18.6C326.1,100.6,317.8,92.2,307.5,92.2z M210.4,110.8c0,10.3,8.3,18.6,18.6,18.6s18.6-8.3,18.6-18.6
		c0-10.3-8.3-18.6-18.6-18.6S210.4,100.6,210.4,110.8z M346.7,81.5c-10.3,0-18.6,8.3-18.6,18.6c0,10.3,8.3,18.6,18.6,18.6
		c10.3,0,18.6-8.3,18.6-18.6C365.3,89.8,357,81.5,346.7,81.5z M249.6,100c0,10.3,8.3,18.6,18.6,18.6c10.3,0,18.6-8.3,18.6-18.6
		c0-10.3-8.3-18.6-18.6-18.6C257.9,81.5,249.6,89.8,249.6,100z M288.8,100v2.2c2.4-5.2,6.9-9.2,12.4-11c-5.5-1.8-10-5.8-12.4-11V100
		z M313.8,91.2c5.4,1.8,9.8,5.7,12.3,10.7V80.5C323.7,85.6,319.2,89.5,313.8,91.2z M235.3,91.2c5.4,1.8,9.8,5.7,12.3,10.7V80.5
		C245.2,85.6,240.7,89.5,235.3,91.2z M392.2,91.2c5.4,1.8,9.8,5.7,12.3,10.7V80.5C402.1,85.6,397.6,89.5,392.2,91.2z M367.3,100v1.9
		c2.4-5.1,6.9-9,12.3-10.7c-5.4-1.8-9.8-5.7-12.3-10.7V100z M210.4,100v1.9c2.4-5.1,6.9-9,12.3-10.7c-5.4-1.8-9.8-5.7-12.3-10.7V100
		z M196.1,80.5c5.4,1.8,9.8,5.7,12.3,10.7V69.7C206,74.8,201.5,78.7,196.1,80.5z M328.1,69.7v21.5c2.4-5.1,6.9-9,12.3-10.7
		C334.9,78.7,330.5,74.8,328.1,69.7z M249.6,69.7v21.5c2.4-5.1,6.9-9,12.3-10.7C256.4,78.7,252,74.8,249.6,69.7z M353,80.5
		c5.4,1.8,9.8,5.7,12.3,10.7V69.7C362.9,74.8,358.4,78.7,353,80.5z M274.5,80.5c5.4,1.8,9.8,5.7,12.3,10.7V69.7
		C284.4,74.8,279.9,78.7,274.5,80.5z M171.3,86.6V91c2.4-5,6.8-8.8,12.2-10.5c-5.3-1.7-9.7-5.6-12.2-10.5l0,16.4
		C171.3,86.4,171.3,86.5,171.3,86.6L171.3,86.6z M86.2,85.6h83.1c-0.2-22-8.9-42.7-24.4-58.3C129.2,11.7,108.4,2.9,86.2,2.8V85.6z
		 M1.1,85.6h83.1C83.7,40.1,46.7,3.1,1.1,2.8V85.6z M346.7,42.2c-10.3,0-18.6,8.3-18.6,18.6s8.3,18.6,18.6,18.6
		c10.3,0,18.6-8.3,18.6-18.6S357,42.2,346.7,42.2z M249.6,60.9c0,10.3,8.3,18.6,18.6,18.6c10.3,0,18.6-8.3,18.6-18.6
		s-8.3-18.6-18.6-18.6C257.9,42.2,249.6,50.6,249.6,60.9z M171.3,62.8c1,9.4,8.9,16.7,18.5,16.7c10.3,0,18.6-8.3,18.6-18.6
		s-8.3-18.6-18.6-18.6c-9.6,0-17.5,7.3-18.5,16.7V62.8z M195.5,41.1c5.7,1.6,10.4,5.7,12.9,10.9V30.1
		C205.9,35.4,201.2,39.4,195.5,41.1z M328.1,30.1V52c2.5-5.3,7.2-9.3,12.9-10.9C335.3,39.4,330.6,35.4,328.1,30.1z M249.6,30.1V52
		c2.5-5.3,7.2-9.3,12.9-10.9C256.8,39.4,252.1,35.4,249.6,30.1z M352.4,41.1c5.7,1.6,10.4,5.7,12.9,10.9V30.1
		C362.8,35.4,358.1,39.4,352.4,41.1z M273.9,41.1c5.7,1.6,10.4,5.7,12.9,10.9V30.1C284.3,35.4,279.6,39.4,273.9,41.1z M171.3,30.3
		v21.5c2.5-5.2,7.2-9.1,12.8-10.7C178.5,39.4,173.8,35.5,171.3,30.3z M346.7,2.6c-10.3,0-18.6,8.3-18.6,18.6s8.3,18.6,18.6,18.6
		c10.3,0,18.6-8.3,18.6-18.6S357,2.6,346.7,2.6z M249.6,21.2c0,10.3,8.3,18.6,18.6,18.6c10.3,0,18.6-8.3,18.6-18.6
		s-8.3-18.6-18.6-18.6C257.9,2.6,249.6,11,249.6,21.2z M171.3,23.2c1,9.4,8.9,16.7,18.5,16.7c10.3,0,18.6-8.3,18.6-18.6
		s-8.3-18.6-18.6-18.6c-9.6,0-17.5,7.3-18.5,16.7V23.2z"/>
</g>
<g>
	<path class="st0" d="M576.7,172.5h-1.3c-23,0-44.6-8.9-60.8-25.2c-11.7-11.7-19.6-26.2-23-42v67.2h-1.3c-23,0-44.6-8.9-60.8-25.2
		c-16-16-24.8-37.2-25-59.7h0V87c0-0.1,0-0.2,0-0.4V0.8h1.3c41,0,75.3,28.9,83.8,67.4V0.8h1.3c23,0,44.6,8.9,60.8,25.2
		c11.7,11.7,19.6,26.2,23,42v-5c-0.1-0.7-0.1-1.4-0.1-2c0-0.7,0-1.4,0.1-2V23.3c-0.1-0.7-0.1-1.4-0.1-2s0-1.4,0.1-2V1h2v11.2
		c3.4-6.8,10.4-11.5,18.5-11.5c8.2,0,15.3,4.8,18.6,11.7V1h2v70.6c0,10.3,8.3,18.6,18.6,18.6S653,81.9,653,71.6V1h2v11.3
		c3.3-6.9,10.4-11.7,18.6-11.7c8.2,0,15.3,4.8,18.6,11.7V1h2v70.6h0.1c0,10.3,8.3,18.6,18.6,18.6s18.6-8.3,18.6-18.6V1h2v11.3
		c3.3-6.9,10.4-11.7,18.6-11.7c8.2,0,15.3,4.8,18.6,11.7V1h2v70.6c0,10.3,8.3,18.6,18.6,18.6s18.6-8.3,18.6-18.6V1.1h2v169.4h-2
		v-11.2c-3.3,6.9-10.4,11.7-18.6,11.7s-15.3-4.8-18.6-11.7v11.1h-2v-31.2c0-10.3-8.3-18.6-18.6-18.6c-10.3,0-18.6,8.3-18.6,18.6
		v31.2h-2v-11.1c-3.3,6.9-10.4,11.7-18.6,11.7c-8.3,0-15.4-4.9-18.7-12v11.4h-2v-31.2c0-10.3-8.3-18.6-18.6-18.6
		c-10.3,0-18.6,8.3-18.6,18.6v31.2h-2v-11.1c-3.3,6.9-10.4,11.7-18.6,11.7s-15.3-4.8-18.6-11.7v11.1h-2V100
		c0-10.3-8.3-18.6-18.6-18.6c-9.6,0-17.5,7.3-18.5,16.6V172.5z M406.5,87.6c0.2,22,8.9,42.7,24.4,58.3
		c15.7,15.7,36.5,24.4,58.7,24.6V87.6H406.5z M491.6,87.6c0.2,22,8.9,42.7,24.4,58.3c15.7,15.7,36.5,24.4,58.7,24.6V100h-0.1
		c0-0.7,0-1.4,0.1-2V87.6H491.6z M772.7,150.5c0,10.3,8.3,18.6,18.6,18.6s18.6-8.3,18.6-18.6c0-10.3-8.3-18.6-18.6-18.6
		S772.7,140.2,772.7,150.5z M712.9,131.8c-10.3,0-18.6,8.3-18.6,18.6c0,10.3,8.3,18.6,18.6,18.6s18.6-8.3,18.6-18.6
		C731.5,140.2,723.2,131.8,712.9,131.8z M615.8,150.5c0,10.3,8.3,18.6,18.6,18.6s18.6-8.3,18.6-18.6c0-10.3-8.3-18.6-18.6-18.6
		S615.8,140.2,615.8,150.5z M694.2,139.2v2.6c2.5-5.4,7.2-9.5,13-11.2c-5.8-1.7-10.5-5.8-13-11.2V139.2z M718.6,130.7
		c5.7,1.6,10.4,5.7,12.9,10.9v-21.9C729,125,724.3,129,718.6,130.7z M640.1,130.7c5.7,1.6,10.4,5.7,12.9,10.9v-21.9
		C650.5,125,645.8,129,640.1,130.7z M797,130.7c5.7,1.6,10.4,5.7,12.9,10.9v-21.9C807.4,125,802.7,129,797,130.7z M772.7,139.2v2.3
		c2.5-5.3,7.2-9.3,12.9-10.9c-5.7-1.6-10.4-5.7-12.9-10.9V139.2z M615.8,119.7v21.9c2.5-5.3,7.2-9.3,12.9-10.9
		C623,129,618.3,125,615.8,119.7z M758.4,119.7c5.4,1.8,9.8,5.7,12.3,10.7v-21.5C768.3,114,763.8,117.9,758.4,119.7z M679.9,119.7
		c5.4,1.8,9.8,5.7,12.3,10.7v-21.5C689.8,114,685.3,117.9,679.9,119.7z M733.5,108.9v21.5c2.4-5.1,6.9-9,12.3-10.7
		C740.3,117.9,735.9,114,733.5,108.9z M655,108.9v21.5c2.4-5.1,6.9-9,12.3-10.7C661.8,117.9,657.4,114,655,108.9z M772.7,110.8
		c0,10.3,8.3,18.6,18.6,18.6s18.6-8.3,18.6-18.6c0-10.3-8.3-18.6-18.6-18.6S772.7,100.6,772.7,110.8z M712.9,92.2
		c-10.3,0-18.6,8.3-18.6,18.6c0,10.3,8.3,18.6,18.6,18.6s18.6-8.3,18.6-18.6C731.5,100.6,723.2,92.2,712.9,92.2z M615.8,110.8
		c0,10.3,8.3,18.6,18.6,18.6s18.6-8.3,18.6-18.6c0-10.3-8.3-18.6-18.6-18.6S615.8,100.6,615.8,110.8z M752.1,81.5
		c-10.3,0-18.6,8.3-18.6,18.6c0,10.3,8.3,18.6,18.6,18.6c10.3,0,18.6-8.3,18.6-18.6C770.7,89.8,762.4,81.5,752.1,81.5z M655,100
		c0,10.3,8.3,18.6,18.6,18.6c10.3,0,18.6-8.3,18.6-18.6c0-10.3-8.3-18.6-18.6-18.6C663.3,81.5,655,89.8,655,100z M694.2,100v2.2
		c2.4-5.2,6.9-9.2,12.4-11c-5.5-1.8-10-5.8-12.4-11V100z M719.2,91.2c5.4,1.8,9.8,5.7,12.3,10.7V80.5
		C729.1,85.6,724.6,89.5,719.2,91.2z M640.7,91.2c5.4,1.8,9.8,5.7,12.3,10.7V80.5C650.6,85.6,646.1,89.5,640.7,91.2z M797.6,91.2
		c5.4,1.8,9.8,5.7,12.3,10.7V80.5C807.5,85.6,803,89.5,797.6,91.2z M772.7,100v1.9c2.4-5.1,6.9-9,12.3-10.7
		c-5.4-1.8-9.8-5.7-12.3-10.7V100z M615.8,100v1.9c2.4-5.1,6.9-9,12.3-10.7c-5.4-1.8-9.8-5.7-12.3-10.7V100z M601.5,80.5
		c5.4,1.8,9.8,5.7,12.3,10.7V69.7C611.4,74.8,606.9,78.7,601.5,80.5z M758.4,80.5c5.4,1.8,9.8,5.7,12.3,10.7V69.7
		C768.3,74.8,763.8,78.7,758.4,80.5z M679.9,80.5c5.4,1.8,9.8,5.7,12.3,10.7V69.7C689.8,74.8,685.3,78.7,679.9,80.5z M733.5,69.7
		v21.5c2.4-5.1,6.9-9,12.3-10.7C740.3,78.7,735.9,74.8,733.5,69.7z M655,69.7v21.5c2.4-5.1,6.9-9,12.3-10.7
		C661.8,78.7,657.4,74.8,655,69.7z M576.7,86.6V91c2.4-5,6.8-8.8,12.2-10.5c-5.3-1.7-9.7-5.6-12.2-10.5l0,16.4
		C576.7,86.4,576.7,86.5,576.7,86.6L576.7,86.6z M491.6,85.6h83.1c-0.2-22-8.9-42.7-24.4-58.3c-15.7-15.7-36.5-24.4-58.7-24.6V85.6z
		 M406.5,85.6h83.1c-0.5-45.6-37.5-82.5-83.1-82.9V85.6z M752.1,42.2c-10.3,0-18.6,8.3-18.6,18.6s8.3,18.6,18.6,18.6
		c10.3,0,18.6-8.3,18.6-18.6S762.4,42.2,752.1,42.2z M655,60.9c0,10.3,8.3,18.6,18.6,18.6c10.3,0,18.6-8.3,18.6-18.6
		s-8.3-18.6-18.6-18.6C663.3,42.2,655,50.6,655,60.9z M576.7,62.8c1,9.3,8.9,16.7,18.5,16.7c10.3,0,18.6-8.3,18.6-18.6
		s-8.3-18.6-18.6-18.6c-9.6,0-17.5,7.3-18.5,16.7V62.8z M600.9,41.1c5.7,1.6,10.4,5.7,12.9,10.9V30.1
		C611.3,35.4,606.6,39.4,600.9,41.1z M757.8,41.1c5.7,1.6,10.4,5.7,12.9,10.9V30.1C768.2,35.4,763.5,39.4,757.8,41.1z M679.3,41.1
		c5.7,1.6,10.4,5.7,12.9,10.9V30.1C689.7,35.4,685,39.4,679.3,41.1z M733.5,30.1V52c2.5-5.3,7.2-9.3,12.9-10.9
		C740.7,39.4,736,35.4,733.5,30.1z M655,30.1V52c2.5-5.3,7.2-9.3,12.9-10.9C662.2,39.4,657.5,35.4,655,30.1z M576.7,30.3v21.5
		c2.5-5.2,7.2-9.1,12.8-10.7C583.9,39.4,579.2,35.5,576.7,30.3z M752.1,2.6c-10.3,0-18.6,8.3-18.6,18.6s8.3,18.6,18.6,18.6
		c10.3,0,18.6-8.3,18.6-18.6S762.4,2.6,752.1,2.6z M655,21.2c0,10.3,8.3,18.6,18.6,18.6c10.3,0,18.6-8.3,18.6-18.6
		s-8.3-18.6-18.6-18.6C663.3,2.6,655,11,655,21.2z M576.7,23.2c1,9.3,8.9,16.7,18.5,16.7c10.3,0,18.6-8.3,18.6-18.6
		s-8.3-18.6-18.6-18.6c-9.6,0-17.5,7.3-18.5,16.7V23.2z"/>
</g>
<g>
	<path class="st0" d="M982.1,172.5h-1.3c-23,0-44.6-8.9-60.8-25.2c-11.7-11.7-19.6-26.2-23-42v67.2h-1.3c-23,0-44.6-8.9-60.8-25.2
		c-16-16-24.8-37.2-25-59.7h0V87c0-0.1,0-0.2,0-0.4V0.8h1.3c41,0,75.3,28.9,83.8,67.4V0.8h1.3c23,0,44.6,8.9,60.8,25.2
		c11.7,11.7,19.6,26.2,23,42v-5c-0.1-0.7-0.1-1.3-0.1-2s0-1.4,0.1-2V23.3c-0.1-0.7-0.1-1.3-0.1-2s0-1.4,0.1-2V1h2v11.2
		c3.4-6.8,10.4-11.5,18.5-11.5c8.2,0,15.3,4.8,18.6,11.7V1h2v70.6c0,10.3,8.3,18.6,18.6,18.6c10.3,0,18.6-8.3,18.6-18.6V1h2v11.3
		c3.3-6.9,10.4-11.7,18.6-11.7s15.3,4.8,18.6,11.7V1h2v70.6h0.1c0,10.3,8.3,18.6,18.6,18.6c10.3,0,18.6-8.3,18.6-18.6V1h2v11.3
		c3.3-6.9,10.4-11.7,18.6-11.7s15.3,4.8,18.6,11.7V1h2v70.6c0,10.3,8.3,18.6,18.6,18.6c10.3,0,18.6-8.3,18.6-18.6V1.1h2v169.4h-2
		v-11.2c-3.3,6.9-10.4,11.7-18.6,11.7s-15.3-4.8-18.6-11.7v11.1h-2v-31.2c0-10.3-8.3-18.6-18.6-18.6c-10.3,0-18.6,8.3-18.6,18.6
		v31.2h-2v-11.1c-3.3,6.9-10.4,11.7-18.6,11.7c-8.3,0-15.4-4.9-18.7-12v11.4h-2v-31.2c0-10.3-8.3-18.6-18.6-18.6
		c-10.3,0-18.6,8.3-18.6,18.6v31.2h-2v-11.1c-3.3,6.9-10.4,11.7-18.6,11.7s-15.3-4.8-18.6-11.7v11.1h-2V100
		c0-10.3-8.3-18.6-18.6-18.6c-9.6,0-17.5,7.3-18.5,16.6V172.5z M811.9,87.6c0.2,22,8.9,42.7,24.4,58.3
		c15.7,15.7,36.5,24.4,58.7,24.6V87.6H811.9z M897,87.6c0.2,22,8.9,42.7,24.4,58.3c15.7,15.7,36.5,24.4,58.7,24.6V100H980
		c0-0.7,0-1.4,0.1-2V87.6H897z M1178.1,150.5c0,10.3,8.3,18.6,18.6,18.6c10.3,0,18.6-8.3,18.6-18.6c0-10.3-8.3-18.6-18.6-18.6
		C1186.4,131.8,1178.1,140.2,1178.1,150.5z M1118.3,131.8c-10.3,0-18.6,8.3-18.6,18.6c0,10.3,8.3,18.6,18.6,18.6
		c10.3,0,18.6-8.3,18.6-18.6C1136.9,140.2,1128.6,131.8,1118.3,131.8z M1021.2,150.5c0,10.3,8.3,18.6,18.6,18.6
		c10.3,0,18.6-8.3,18.6-18.6c0-10.3-8.3-18.6-18.6-18.6C1029.5,131.8,1021.2,140.2,1021.2,150.5z M1099.6,139.2v2.6
		c2.5-5.4,7.2-9.5,13-11.2c-5.8-1.7-10.5-5.8-13-11.2V139.2z M1021.2,119.7v21.9c2.5-5.3,7.2-9.3,12.9-10.9
		C1028.4,129,1023.7,125,1021.2,119.7z M1202.4,130.7c5.7,1.6,10.4,5.7,12.9,10.9v-21.9C1212.8,125,1208.1,129,1202.4,130.7z
		 M1124,130.7c5.7,1.6,10.4,5.7,12.9,10.9v-21.9C1134.4,125,1129.7,129,1124,130.7z M1045.5,130.7c5.7,1.6,10.4,5.7,12.9,10.9v-21.9
		C1055.9,125,1051.2,129,1045.5,130.7z M1178.1,139.2v2.3c2.5-5.3,7.2-9.3,12.9-10.9c-5.7-1.6-10.4-5.7-12.9-10.9V139.2z
		 M1138.9,108.9v21.5c2.4-5.1,6.9-9,12.3-10.7C1145.7,117.9,1141.3,114,1138.9,108.9z M1060.4,108.9v21.5c2.4-5.1,6.9-9,12.3-10.7
		C1067.2,117.9,1062.8,114,1060.4,108.9z M1163.8,119.7c5.4,1.8,9.8,5.7,12.3,10.7v-21.5C1173.7,114,1169.2,117.9,1163.8,119.7z
		 M1085.3,119.7c5.4,1.8,9.8,5.7,12.3,10.7v-21.5C1095.2,114,1090.7,117.9,1085.3,119.7z M1178.1,110.8c0,10.3,8.3,18.6,18.6,18.6
		c10.3,0,18.6-8.3,18.6-18.6c0-10.3-8.3-18.6-18.6-18.6C1186.4,92.2,1178.1,100.6,1178.1,110.8z M1118.3,92.2
		c-10.3,0-18.6,8.3-18.6,18.6c0,10.3,8.3,18.6,18.6,18.6c10.3,0,18.6-8.3,18.6-18.6C1136.9,100.6,1128.6,92.2,1118.3,92.2z
		 M1021.2,110.8c0,10.3,8.3,18.6,18.6,18.6c10.3,0,18.6-8.3,18.6-18.6c0-10.3-8.3-18.6-18.6-18.6
		C1029.5,92.2,1021.2,100.6,1021.2,110.8z M1157.5,81.5c-10.3,0-18.6,8.3-18.6,18.6c0,10.3,8.3,18.6,18.6,18.6
		c10.3,0,18.6-8.3,18.6-18.6C1176.1,89.8,1167.8,81.5,1157.5,81.5z M1060.4,100c0,10.3,8.3,18.6,18.6,18.6
		c10.3,0,18.6-8.3,18.6-18.6c0-10.3-8.3-18.6-18.6-18.6C1068.7,81.5,1060.4,89.8,1060.4,100z M1099.6,100v2.2
		c2.4-5.2,6.9-9.2,12.4-11c-5.5-1.8-10-5.8-12.4-11V100z M1021.2,100v1.9c2.4-5.1,6.9-9,12.3-10.7c-5.4-1.8-9.8-5.7-12.3-10.7V100z
		 M1203,91.2c5.4,1.8,9.8,5.7,12.3,10.7V80.5C1212.9,85.6,1208.4,89.5,1203,91.2z M1124.6,91.2c5.4,1.8,9.8,5.7,12.3,10.7V80.5
		C1134.5,85.6,1130,89.5,1124.6,91.2z M1046.1,91.2c5.4,1.8,9.8,5.7,12.3,10.7V80.5C1056,85.6,1051.5,89.5,1046.1,91.2z M1178.1,100
		v1.9c2.4-5.1,6.9-9,12.3-10.7c-5.4-1.8-9.8-5.7-12.3-10.7V100z M1138.9,69.7v21.5c2.4-5.1,6.9-9,12.3-10.7
		C1145.7,78.7,1141.3,74.8,1138.9,69.7z M1060.4,69.7v21.5c2.4-5.1,6.9-9,12.3-10.7C1067.2,78.7,1062.8,74.8,1060.4,69.7z
		 M1163.8,80.5c5.4,1.8,9.8,5.7,12.3,10.7V69.7C1173.7,74.8,1169.2,78.7,1163.8,80.5z M1085.3,80.5c5.4,1.8,9.8,5.7,12.3,10.7V69.7
		C1095.2,74.8,1090.7,78.7,1085.3,80.5z M1006.9,80.5c5.4,1.8,9.8,5.7,12.3,10.7V69.7C1016.8,74.8,1012.3,78.7,1006.9,80.5z
		 M982.1,86.6V91c2.4-5,6.8-8.8,12.2-10.5c-5.3-1.7-9.7-5.6-12.2-10.5l0,16.4C982.1,86.4,982.1,86.5,982.1,86.6L982.1,86.6z
		 M897,85.6h83.1c-0.2-22-8.9-42.7-24.4-58.3C940,11.7,919.2,2.9,897,2.8V85.6z M811.9,85.6H895c-0.5-45.6-37.5-82.5-83.1-82.9V85.6
		z M1157.5,42.2c-10.3,0-18.6,8.3-18.6,18.6s8.3,18.6,18.6,18.6c10.3,0,18.6-8.3,18.6-18.6S1167.8,42.2,1157.5,42.2z M1060.4,60.9
		c0,10.3,8.3,18.6,18.6,18.6c10.3,0,18.6-8.3,18.6-18.6s-8.3-18.6-18.6-18.6C1068.7,42.2,1060.4,50.6,1060.4,60.9z M982.1,62.8
		c1,9.4,8.9,16.7,18.5,16.7c10.3,0,18.6-8.3,18.6-18.6s-8.3-18.6-18.6-18.6c-9.6,0-17.5,7.3-18.5,16.7V62.8z M1138.9,30.1V52
		c2.5-5.3,7.2-9.3,12.9-10.9C1146.1,39.4,1141.4,35.4,1138.9,30.1z M1060.4,30.1V52c2.5-5.3,7.2-9.3,12.9-10.9
		C1067.6,39.4,1062.9,35.4,1060.4,30.1z M1163.2,41.1c5.7,1.6,10.4,5.7,12.9,10.9V30.1C1173.6,35.4,1168.9,39.4,1163.2,41.1z
		 M1084.7,41.1c5.7,1.6,10.4,5.7,12.9,10.9V30.1C1095.1,35.4,1090.4,39.4,1084.7,41.1z M1006.3,41.1c5.7,1.6,10.4,5.7,12.9,10.9
		V30.1C1016.7,35.4,1012,39.4,1006.3,41.1z M982.1,30.3v21.5c2.5-5.2,7.2-9.1,12.8-10.7C989.3,39.4,984.6,35.5,982.1,30.3z
		 M1157.5,2.6c-10.3,0-18.6,8.3-18.6,18.6s8.3,18.6,18.6,18.6c10.3,0,18.6-8.3,18.6-18.6S1167.8,2.6,1157.5,2.6z M1060.4,21.2
		c0,10.3,8.3,18.6,18.6,18.6c10.3,0,18.6-8.3,18.6-18.6s-8.3-18.6-18.6-18.6C1068.7,2.6,1060.4,11,1060.4,21.2z M982.1,23.2
		c1,9.4,8.9,16.7,18.5,16.7c10.3,0,18.6-8.3,18.6-18.6s-8.3-18.6-18.6-18.6c-9.6,0-17.5,7.3-18.5,16.7V23.2z"/>
</g>
<g>
	<path class="st0" d="M1387.5,172.5h-1.3c-23,0-44.6-8.9-60.8-25.2c-11.7-11.7-19.6-26.2-23-42v67.2h-1.3c-23,0-44.6-8.9-60.8-25.2
		c-16-16-24.8-37.2-25-59.7h0V87c0-0.1,0-0.2,0-0.4V0.8h1.3c41,0,75.3,28.9,83.8,67.4V0.8h1.3c23,0,44.6,8.9,60.8,25.2
		c11.7,11.7,19.6,26.2,23,42v-5c-0.1-0.7-0.1-1.4-0.1-2s0-1.4,0.1-2V23.3c-0.1-0.7-0.1-1.4-0.1-2s0-1.4,0.1-2V1h2v11.2
		c3.4-6.8,10.4-11.5,18.5-11.5c8.2,0,15.3,4.8,18.6,11.7V1h2v70.6c0,10.3,8.3,18.6,18.6,18.6c10.3,0,18.6-8.3,18.6-18.6V1h2v11.3
		c3.3-6.9,10.4-11.7,18.6-11.7s15.3,4.8,18.6,11.7V1h2v70.6h0.1c0,10.3,8.3,18.6,18.6,18.6c10.3,0,18.6-8.3,18.6-18.6V1h2v11.3
		c3.3-6.9,10.4-11.7,18.6-11.7s15.3,4.8,18.6,11.7V1h2v70.6c0,10.3,8.3,18.6,18.6,18.6c10.3,0,18.6-8.3,18.6-18.6V1.1h2v169.4h-2
		v-11.2c-3.3,6.9-10.4,11.7-18.6,11.7s-15.3-4.8-18.6-11.7v11.1h-2v-31.2c0-10.3-8.3-18.6-18.6-18.6c-10.3,0-18.6,8.3-18.6,18.6
		v31.2h-2v-11.1c-3.3,6.9-10.4,11.7-18.6,11.7c-8.3,0-15.4-4.9-18.7-12v11.4h-2v-31.2c0-10.3-8.3-18.6-18.6-18.6
		c-10.3,0-18.6,8.3-18.6,18.6v31.2h-2v-11.1c-3.3,6.9-10.4,11.7-18.6,11.7s-15.3-4.8-18.6-11.7v11.1h-2V100
		c0-10.3-8.3-18.6-18.6-18.6c-9.6,0-17.5,7.3-18.5,16.6V172.5z M1217.3,87.6c0.2,22,8.9,42.7,24.4,58.3
		c15.7,15.7,36.5,24.4,58.7,24.6V87.6H1217.3z M1302.4,87.6c0.2,22,8.9,42.7,24.4,58.3c15.7,15.7,36.5,24.4,58.7,24.6V100h-0.1
		c0-0.7,0-1.4,0.1-2V87.6H1302.4z M1583.5,150.5c0,10.3,8.3,18.6,18.6,18.6c10.3,0,18.6-8.3,18.6-18.6c0-10.3-8.3-18.6-18.6-18.6
		C1591.8,131.8,1583.5,140.2,1583.5,150.5z M1523.7,131.8c-10.3,0-18.6,8.3-18.6,18.6c0,10.3,8.3,18.6,18.6,18.6
		c10.3,0,18.6-8.3,18.6-18.6C1542.3,140.2,1533.9,131.8,1523.7,131.8z M1426.6,150.5c0,10.3,8.3,18.6,18.6,18.6
		c10.3,0,18.6-8.3,18.6-18.6c0-10.3-8.3-18.6-18.6-18.6C1434.9,131.8,1426.6,140.2,1426.6,150.5z M1505,139.2v2.6
		c2.5-5.4,7.2-9.5,13-11.2c-5.8-1.7-10.5-5.8-13-11.2V139.2z M1426.6,119.7v21.9c2.5-5.3,7.2-9.3,12.9-10.9
		C1433.8,129,1429.1,125,1426.6,119.7z M1607.8,130.7c5.7,1.6,10.4,5.7,12.9,10.9v-21.9C1618.2,125,1613.5,129,1607.8,130.7z
		 M1529.4,130.7c5.7,1.6,10.4,5.7,12.9,10.9v-21.9C1539.8,125,1535.1,129,1529.4,130.7z M1450.9,130.7c5.7,1.6,10.4,5.7,12.9,10.9
		v-21.9C1461.3,125,1456.6,129,1450.9,130.7z M1583.5,139.2v2.3c2.5-5.3,7.2-9.3,12.9-10.9c-5.7-1.6-10.4-5.7-12.9-10.9V139.2z
		 M1569.2,119.7c5.4,1.8,9.8,5.7,12.3,10.7v-21.5C1579.1,114,1574.6,117.9,1569.2,119.7z M1490.7,119.7c5.4,1.8,9.8,5.7,12.3,10.7
		v-21.5C1500.6,114,1496.1,117.9,1490.7,119.7z M1544.3,108.9v21.5c2.4-5.1,6.9-9,12.3-10.7C1551.1,117.9,1546.7,114,1544.3,108.9z
		 M1465.8,108.9v21.5c2.4-5.1,6.9-9,12.3-10.7C1472.6,117.9,1468.2,114,1465.8,108.9z M1583.5,110.8c0,10.3,8.3,18.6,18.6,18.6
		c10.3,0,18.6-8.3,18.6-18.6c0-10.3-8.3-18.6-18.6-18.6C1591.8,92.2,1583.5,100.6,1583.5,110.8z M1523.7,92.2
		c-10.3,0-18.6,8.3-18.6,18.6c0,10.3,8.3,18.6,18.6,18.6c10.3,0,18.6-8.3,18.6-18.6C1542.3,100.6,1533.9,92.2,1523.7,92.2z
		 M1426.6,110.8c0,10.3,8.3,18.6,18.6,18.6c10.3,0,18.6-8.3,18.6-18.6c0-10.3-8.3-18.6-18.6-18.6
		C1434.9,92.2,1426.6,100.6,1426.6,110.8z M1562.9,81.5c-10.3,0-18.6,8.3-18.6,18.6c0,10.3,8.3,18.6,18.6,18.6
		c10.3,0,18.6-8.3,18.6-18.6C1581.5,89.8,1573.1,81.5,1562.9,81.5z M1465.8,100c0,10.3,8.3,18.6,18.6,18.6
		c10.3,0,18.6-8.3,18.6-18.6c0-10.3-8.3-18.6-18.6-18.6C1474.1,81.5,1465.8,89.8,1465.8,100z M1505,100v2.2c2.4-5.2,6.9-9.2,12.4-11
		c-5.5-1.8-10-5.8-12.4-11V100z M1426.6,100v1.9c2.4-5.1,6.9-9,12.3-10.7c-5.4-1.8-9.8-5.7-12.3-10.7V100z M1608.4,91.2
		c5.4,1.8,9.8,5.7,12.3,10.7V80.5C1618.3,85.6,1613.8,89.5,1608.4,91.2z M1530,91.2c5.4,1.8,9.8,5.7,12.3,10.7V80.5
		C1539.9,85.6,1535.4,89.5,1530,91.2z M1451.5,91.2c5.4,1.8,9.8,5.7,12.3,10.7V80.5C1461.4,85.6,1456.9,89.5,1451.5,91.2z
		 M1583.5,100v1.9c2.4-5.1,6.9-9,12.3-10.7c-5.4-1.8-9.8-5.7-12.3-10.7V100z M1569.2,80.5c5.4,1.8,9.8,5.7,12.3,10.7V69.7
		C1579.1,74.8,1574.6,78.7,1569.2,80.5z M1490.7,80.5c5.4,1.8,9.8,5.7,12.3,10.7V69.7C1500.6,74.8,1496.1,78.7,1490.7,80.5z
		 M1412.3,80.5c5.4,1.8,9.8,5.7,12.3,10.7V69.7C1422.2,74.8,1417.7,78.7,1412.3,80.5z M1544.3,69.7v21.5c2.4-5.1,6.9-9,12.3-10.7
		C1551.1,78.7,1546.7,74.8,1544.3,69.7z M1465.8,69.7v21.5c2.4-5.1,6.9-9,12.3-10.7C1472.6,78.7,1468.2,74.8,1465.8,69.7z
		 M1387.5,86.6V91c2.4-5,6.8-8.8,12.2-10.5c-5.3-1.7-9.7-5.6-12.2-10.5l0,16.4C1387.5,86.4,1387.5,86.5,1387.5,86.6L1387.5,86.6z
		 M1302.4,85.6h83.1c-0.2-22-8.9-42.7-24.4-58.3c-15.7-15.7-36.5-24.4-58.7-24.6V85.6z M1217.3,85.6h83.1
		c-0.5-45.6-37.5-82.5-83.1-82.9V85.6z M1562.9,42.2c-10.3,0-18.6,8.3-18.6,18.6s8.3,18.6,18.6,18.6c10.3,0,18.6-8.3,18.6-18.6
		S1573.1,42.2,1562.9,42.2z M1465.8,60.9c0,10.3,8.3,18.6,18.6,18.6c10.3,0,18.6-8.3,18.6-18.6s-8.3-18.6-18.6-18.6
		C1474.1,42.2,1465.8,50.6,1465.8,60.9z M1387.5,62.8c1,9.3,8.9,16.7,18.5,16.7c10.3,0,18.6-8.3,18.6-18.6s-8.3-18.6-18.6-18.6
		c-9.6,0-17.5,7.3-18.5,16.7V62.8z M1568.6,41.1c5.7,1.6,10.4,5.7,12.9,10.9V30.1C1579,35.4,1574.3,39.4,1568.6,41.1z M1490.1,41.1
		c5.7,1.6,10.4,5.7,12.9,10.9V30.1C1500.5,35.4,1495.8,39.4,1490.1,41.1z M1411.7,41.1c5.7,1.6,10.4,5.7,12.9,10.9V30.1
		C1422.1,35.4,1417.4,39.4,1411.7,41.1z M1544.3,30.1V52c2.5-5.3,7.2-9.3,12.9-10.9C1551.5,39.4,1546.8,35.4,1544.3,30.1z
		 M1465.8,30.1V52c2.5-5.3,7.2-9.3,12.9-10.9C1473,39.4,1468.3,35.4,1465.8,30.1z M1387.5,30.3v21.5c2.5-5.2,7.2-9.1,12.8-10.7
		C1394.7,39.4,1390,35.5,1387.5,30.3z M1562.9,2.6c-10.3,0-18.6,8.3-18.6,18.6s8.3,18.6,18.6,18.6c10.3,0,18.6-8.3,18.6-18.6
		S1573.1,2.6,1562.9,2.6z M1465.8,21.2c0,10.3,8.3,18.6,18.6,18.6c10.3,0,18.6-8.3,18.6-18.6s-8.3-18.6-18.6-18.6
		C1474.1,2.6,1465.8,11,1465.8,21.2z M1387.5,23.2c1,9.3,8.9,16.7,18.5,16.7c10.3,0,18.6-8.3,18.6-18.6s-8.3-18.6-18.6-18.6
		c-9.6,0-17.5,7.3-18.5,16.7V23.2z"/>
</g>
</svg>
