<?xml version="1.0" encoding="utf-8"?>
<!-- Generator: Adobe Illustrator 17.0.0, SVG Export Plug-In . SVG Version: 6.00 Build 0)  -->
<!DOCTYPE svg PUBLIC "-//W3C//DTD SVG 1.1//EN" "http://www.w3.org/Graphics/SVG/1.1/DTD/svg11.dtd">
<svg version="1.1" id="Capa_1" xmlns="http://www.w3.org/2000/svg" xmlns:xlink="http://www.w3.org/1999/xlink" x="0px" y="0px"
	 width="1624.4px" height="172.4px" viewBox="0 0 1624.4 172.4" enable-background="new 0 0 1624.4 172.4" xml:space="preserve">
<g>
	<path fill="#222221" d="M191.1,81.4c-11.5,0-20.9-9.4-20.9-20.9s9.4-20.9,20.9-20.9S212,49,212,60.5S202.6,81.4,191.1,81.4z
		 M191.1,42.1c-10.1,0-18.4,8.2-18.4,18.4s8.2,18.4,18.4,18.4c10.1,0,18.4-8.2,18.4-18.4S201.2,42.1,191.1,42.1z"/>
</g>
<g>
	<path fill="#222221" d="M211.9,99.7h-2.5c0-10.1-8.2-18.4-18.4-18.4c-10.1,0-18.4,8.2-18.4,18.4h-2.5c0-11.5,9.4-20.9,20.9-20.9
		S211.9,88.2,211.9,99.7z"/>
</g>
<g>
	<path fill="#222221" d="M191.1,41.8c-11.5,0-20.9-9.4-20.9-20.9S179.6,0,191.1,0S212,9.4,212,20.9S202.6,41.8,191.1,41.8z
		 M191.1,2.6c-10.1,0-18.4,8.2-18.4,18.4s8.2,18.4,18.4,18.4c10.1,0,18.4-8.2,18.4-18.4S201.2,2.6,191.1,2.6z"/>
</g>
<g>
	<rect x="209.4" y="0.6" fill="#222221" width="2.5" height="169.5"/>
</g>
<g>
	<rect x="248.6" y="0.7" fill="#222221" width="2.5" height="169.5"/>
</g>
<g>
	<rect x="170.3" y="0.6" fill="#222221" width="2.5" height="170"/>
</g>
<g>
	<path fill="#222221" d="M230.3,131.4c-11.5,0-20.9-9.4-20.9-20.9s9.4-20.9,20.9-20.9s20.9,9.4,20.9,20.9S241.8,131.4,230.3,131.4z
		 M230.3,92.2c-10.1,0-18.4,8.2-18.4,18.4s8.2,18.4,18.4,18.4c10.1,0,18.4-8.2,18.4-18.4S240.4,92.2,230.3,92.2z"/>
</g>
<g>
	<path fill="#222221" d="M230.3,92.2c-11.5,0-20.9-9.4-20.9-20.9h2.5c0,10.1,8.2,18.4,18.4,18.4c10.1,0,18.4-8.2,18.4-18.4h2.5
		C251.1,82.8,241.8,92.2,230.3,92.2z"/>
</g>
<g>
	<path fill="#222221" d="M230.3,171c-11.5,0-20.9-9.4-20.9-20.9s9.4-20.9,20.9-20.9s20.9,9.4,20.9,20.9S241.8,171,230.3,171z
		 M230.3,131.8c-10.1,0-18.4,8.2-18.4,18.4c0,10.1,8.2,18.4,18.4,18.4c10.1,0,18.4-8.2,18.4-18.4C248.6,140,240.4,131.8,230.3,131.8
		z"/>
</g>
<g>
	<path fill="#222221" d="M269.5,81.4c-11.5,0-20.9-9.4-20.9-20.9s9.4-20.9,20.9-20.9s20.9,9.4,20.9,20.9S281,81.4,269.5,81.4z
		 M269.5,42.1c-10.1,0-18.4,8.2-18.4,18.4s8.2,18.4,18.4,18.4s18.4-8.2,18.4-18.4S279.6,42.1,269.5,42.1z"/>
</g>
<g>
	<path fill="#222221" d="M269.5,120.6c-11.5,0-20.9-9.4-20.9-20.9s9.4-20.9,20.9-20.9s20.9,9.4,20.9,20.9S281,120.6,269.5,120.6z
		 M269.5,81.4c-10.1,0-18.4,8.2-18.4,18.4s8.2,18.4,18.4,18.4s18.4-8.2,18.4-18.4S279.6,81.4,269.5,81.4z"/>
</g>
<g>
	<path fill="#222221" d="M290.3,138.9h-2.5c0-10.1-8.2-18.4-18.4-18.4c-10.2,0-18.4,8.2-18.4,18.4h-2.5c0-11.5,9.4-20.9,20.9-20.9
		S290.3,127.4,290.3,138.9z"/>
</g>
<g>
	<path fill="#222221" d="M269.5,41.8c-11.5,0-20.9-9.4-20.9-20.9S258,0,269.5,0s20.9,9.4,20.9,20.9S281,41.8,269.5,41.8z M269.5,2.6
		c-10.1,0-18.4,8.2-18.4,18.4s8.2,18.4,18.4,18.4s18.4-8.2,18.4-18.4S279.6,2.6,269.5,2.6z"/>
</g>
<g>
	<path fill="#222221" d="M347.9,81.4c-11.5,0-20.9-9.4-20.9-20.9s9.4-20.9,20.9-20.9s20.9,9.4,20.9,20.9S359.4,81.4,347.9,81.4z
		 M347.9,42.2c-10.1,0-18.4,8.2-18.4,18.4S337.7,79,347.9,79c10.2,0,18.4-8.2,18.4-18.4S358,42.2,347.9,42.2z"/>
</g>
<g>
	<path fill="#222221" d="M347.9,120.6c-11.5,0-20.9-9.4-20.9-20.9s9.4-20.9,20.9-20.9s20.9,9.4,20.9,20.9S359.4,120.6,347.9,120.6z
		 M347.9,81.4c-10.1,0-18.4,8.2-18.4,18.4s8.2,18.4,18.4,18.4c10.2,0,18.4-8.2,18.4-18.4S358,81.4,347.9,81.4z"/>
</g>
<g>
	<path fill="#222221" d="M368.8,138.9h-2.5c0-10.1-8.2-18.4-18.4-18.4c-10.2,0-18.4,8.2-18.4,18.4H327c0-11.5,9.4-20.9,20.9-20.9
		S368.8,127.4,368.8,138.9z"/>
</g>
<g>
	<path fill="#222221" d="M347.9,41.8c-11.5,0-20.9-9.4-20.9-20.9S336.4,0,347.9,0s20.9,9.4,20.9,20.9S359.4,41.8,347.9,41.8z
		 M347.9,2.6c-10.1,0-18.4,8.2-18.4,18.4s8.2,18.4,18.4,18.4c10.2,0,18.4-8.2,18.4-18.4S358,2.6,347.9,2.6z"/>
</g>
<g>
	<rect x="287.8" y="0.6" fill="#222221" width="2.5" height="169.5"/>
</g>
<g>
	<rect x="327.1" y="0.7" fill="#222221" width="2.5" height="169.5"/>
</g>
<g>
	<path fill="#222221" d="M308.7,131.4c-11.5,0-20.9-9.4-20.9-20.9s9.4-20.9,20.9-20.9s20.9,9.4,20.9,20.9S320.2,131.4,308.7,131.4z
		 M308.7,92.2c-10.1,0-18.4,8.2-18.4,18.4s8.2,18.4,18.4,18.4c10.2,0,18.4-8.2,18.4-18.4S318.9,92.2,308.7,92.2z"/>
</g>
<g>
	<path fill="#222221" d="M308.7,92.2c-11.5,0-20.9-9.4-20.9-20.9h2.5c0,10.1,8.2,18.4,18.4,18.4c10.2,0,18.4-8.2,18.4-18.4h2.5
		C329.6,82.8,320.2,92.2,308.7,92.2z"/>
</g>
<g>
	<path fill="#222221" d="M308.7,171c-11.5,0-20.9-9.4-20.9-20.9s9.4-20.9,20.9-20.9s20.9,9.4,20.9,20.9S320.2,171,308.7,171z
		 M308.7,131.8c-10.1,0-18.4,8.2-18.4,18.4c0,10.1,8.2,18.4,18.4,18.4c10.2,0,18.4-8.2,18.4-18.4C327.1,140,318.9,131.8,308.7,131.8
		z"/>
</g>
<g>
	<rect x="366.3" y="0.6" fill="#222221" width="2.5" height="169.5"/>
</g>
<g>
	<rect x="405.5" y="0.7" fill="#222221" width="2.5" height="169.5"/>
</g>
<g>
	<path fill="#222221" d="M387.1,131.4c-11.5,0-20.9-9.4-20.9-20.9s9.4-20.9,20.9-20.9S408,99,408,110.5S398.6,131.4,387.1,131.4z
		 M387.1,92.2c-10.1,0-18.4,8.2-18.4,18.4s8.2,18.4,18.4,18.4c10.2,0,18.4-8.2,18.4-18.4S397.3,92.2,387.1,92.2z"/>
</g>
<g>
	<path fill="#222221" d="M387.1,92.2c-11.5,0-20.9-9.4-20.9-20.9h2.5c0,10.1,8.2,18.4,18.4,18.4c10.2,0,18.4-8.2,18.4-18.4h2.5
		C408,82.8,398.6,92.2,387.1,92.2z"/>
</g>
<g>
	<path fill="#222221" d="M387.1,171c-11.5,0-20.9-9.4-20.9-20.9s9.4-20.9,20.9-20.9s20.9,9.4,20.9,20.9S398.6,171,387.1,171z
		 M387.1,131.8c-10.1,0-18.4,8.2-18.4,18.4c0,10.1,8.2,18.4,18.4,18.4c10.2,0,18.4-8.2,18.4-18.4C405.5,140,397.3,131.8,387.1,131.8
		z"/>
</g>
<g>
	<path fill="#222221" d="M87.6,87.5H0V0.2h1.5c47.5,0,86.1,38.6,86.1,86.1V87.5z M2.5,85h82.6C84.4,39.8,47.7,3.2,2.5,2.6V85z"/>
</g>
<g>
	<path fill="#222221" d="M86.1,172.3C38.6,172.3,0,133.7,0,86.2V85h87.6v87.4L86.1,172.3z M2.5,87.5c0.7,45.2,37.4,81.8,82.6,82.4
		V87.5H2.5z"/>
</g>
<g>
	<path fill="#222221" d="M172.8,87.5H85.2V0.2h1.5c47.5,0,86.1,38.6,86.1,86.1V87.5z M87.6,85h82.6c-0.7-45.2-37.4-81.8-82.6-82.4
		V85z"/>
</g>
<g>
	<path fill="#222221" d="M171.3,172.3c-47.5,0-86.1-38.6-86.1-86.1V85h87.6v87.4L171.3,172.3z M87.7,87.5
		c0.7,45.2,37.4,81.8,82.6,82.4V87.5H87.7z"/>
</g>
<g>
	<path fill="#222221" d="M596.5,81.4c-11.5,0-20.9-9.4-20.9-20.9s9.4-20.9,20.9-20.9s20.9,9.4,20.9,20.9S608,81.4,596.5,81.4z
		 M596.5,42.1c-10.1,0-18.4,8.2-18.4,18.4s8.2,18.4,18.4,18.4s18.4-8.2,18.4-18.4S606.6,42.1,596.5,42.1z"/>
</g>
<g>
	<path fill="#222221" d="M617.4,99.7h-2.5c0-10.1-8.2-18.4-18.4-18.4s-18.4,8.2-18.4,18.4h-2.5c0-11.5,9.4-20.9,20.9-20.9
		S617.4,88.2,617.4,99.7z"/>
</g>
<g>
	<path fill="#222221" d="M596.5,41.8c-11.5,0-20.9-9.4-20.9-20.9S585,0,596.5,0s20.9,9.4,20.9,20.9S608,41.8,596.5,41.8z M596.5,2.6
		c-10.1,0-18.4,8.2-18.4,18.4s8.2,18.4,18.4,18.4s18.4-8.2,18.4-18.4S606.6,2.6,596.5,2.6z"/>
</g>
<g>
	<rect x="614.9" y="0.6" fill="#222221" width="2.5" height="169.5"/>
</g>
<g>
	<rect x="654.1" y="0.7" fill="#222221" width="2.5" height="169.5"/>
</g>
<g>
	<rect x="575.7" y="0.6" fill="#222221" width="2.5" height="170"/>
</g>
<g>
	<path fill="#222221" d="M635.7,131.4c-11.5,0-20.9-9.4-20.9-20.9s9.4-20.9,20.9-20.9s20.9,9.4,20.9,20.9S647.2,131.4,635.7,131.4z
		 M635.7,92.2c-10.1,0-18.4,8.2-18.4,18.4s8.2,18.4,18.4,18.4s18.4-8.2,18.4-18.4S645.8,92.2,635.7,92.2z"/>
</g>
<g>
	<path fill="#222221" d="M635.7,92.2c-11.5,0-20.9-9.4-20.9-20.9h2.5c0,10.1,8.2,18.4,18.4,18.4s18.4-8.2,18.4-18.4h2.5
		C656.6,82.8,647.2,92.2,635.7,92.2z"/>
</g>
<g>
	<path fill="#222221" d="M635.7,171c-11.5,0-20.9-9.4-20.9-20.9s9.4-20.9,20.9-20.9s20.9,9.4,20.9,20.9S647.2,171,635.7,171z
		 M635.7,131.8c-10.1,0-18.4,8.2-18.4,18.4c0,10.1,8.2,18.4,18.4,18.4s18.4-8.2,18.4-18.4C654.1,140,645.8,131.8,635.7,131.8z"/>
</g>
<g>
	<path fill="#222221" d="M674.9,81.4c-11.5,0-20.9-9.4-20.9-20.9s9.4-20.9,20.9-20.9s20.9,9.4,20.9,20.9S686.4,81.4,674.9,81.4z
		 M674.9,42.1c-10.1,0-18.4,8.2-18.4,18.4s8.2,18.4,18.4,18.4c10.2,0,18.4-8.2,18.4-18.4S685,42.1,674.9,42.1z"/>
</g>
<g>
	<path fill="#222221" d="M674.9,120.6c-11.5,0-20.9-9.4-20.9-20.9s9.4-20.9,20.9-20.9s20.9,9.4,20.9,20.9S686.4,120.6,674.9,120.6z
		 M674.9,81.4c-10.1,0-18.4,8.2-18.4,18.4s8.2,18.4,18.4,18.4c10.2,0,18.4-8.2,18.4-18.4S685,81.4,674.9,81.4z"/>
</g>
<g>
	<path fill="#222221" d="M695.7,138.9h-2.5c0-10.1-8.2-18.4-18.4-18.4s-18.4,8.2-18.4,18.4h-2.5c0-11.5,9.4-20.9,20.9-20.9
		S695.7,127.4,695.7,138.9z"/>
</g>
<g>
	<path fill="#222221" d="M674.9,41.8c-11.5,0-20.9-9.4-20.9-20.9S663.4,0,674.9,0s20.9,9.4,20.9,20.9S686.4,41.8,674.9,41.8z
		 M674.9,2.6c-10.1,0-18.4,8.2-18.4,18.4s8.2,18.4,18.4,18.4c10.2,0,18.4-8.2,18.4-18.4S685,2.6,674.9,2.6z"/>
</g>
<g>
	<path fill="#222221" d="M753.4,81.4c-11.5,0-20.9-9.4-20.9-20.9s9.4-20.9,20.9-20.9s20.9,9.4,20.9,20.9S764.9,81.4,753.4,81.4z
		 M753.4,42.2c-10.1,0-18.4,8.2-18.4,18.4S743.2,79,753.4,79c10.2,0,18.4-8.2,18.4-18.4S763.5,42.2,753.4,42.2z"/>
</g>
<g>
	<path fill="#222221" d="M753.4,120.6c-11.5,0-20.9-9.4-20.9-20.9s9.4-20.9,20.9-20.9s20.9,9.4,20.9,20.9S764.9,120.6,753.4,120.6z
		 M753.4,81.4c-10.1,0-18.4,8.2-18.4,18.4s8.2,18.4,18.4,18.4c10.2,0,18.4-8.2,18.4-18.4S763.5,81.4,753.4,81.4z"/>
</g>
<g>
	<path fill="#222221" d="M774.2,138.9h-2.5c0-10.1-8.2-18.4-18.4-18.4s-18.4,8.2-18.4,18.4h-2.5c0-11.5,9.4-20.9,20.9-20.9
		S774.2,127.4,774.2,138.9z"/>
</g>
<g>
	<path fill="#222221" d="M753.4,41.8c-11.5,0-20.9-9.4-20.9-20.9S741.9,0,753.4,0s20.9,9.4,20.9,20.9S764.9,41.8,753.4,41.8z
		 M753.4,2.6C743.3,2.6,735,10.8,735,21s8.2,18.4,18.4,18.4c10.2,0,18.4-8.2,18.4-18.4S763.5,2.6,753.4,2.6z"/>
</g>
<g>
	<rect x="693.2" y="0.6" fill="#222221" width="2.5" height="169.5"/>
</g>
<g>
	<rect x="732.5" y="0.7" fill="#222221" width="2.5" height="169.5"/>
</g>
<g>
	<path fill="#222221" d="M714.2,131.4c-11.5,0-20.9-9.4-20.9-20.9s9.4-20.9,20.9-20.9s20.9,9.4,20.9,20.9S725.7,131.4,714.2,131.4z
		 M714.2,92.2c-10.1,0-18.4,8.2-18.4,18.4S704,129,714.2,129s18.4-8.2,18.4-18.4S724.3,92.2,714.2,92.2z"/>
</g>
<g>
	<path fill="#222221" d="M714.2,92.2c-11.5,0-20.9-9.4-20.9-20.9h2.5c0,10.1,8.2,18.4,18.4,18.4s18.4-8.2,18.4-18.4h2.5
		C735,82.8,725.7,92.2,714.2,92.2z"/>
</g>
<g>
	<path fill="#222221" d="M714.2,171c-11.5,0-20.9-9.4-20.9-20.9s9.4-20.9,20.9-20.9s20.9,9.4,20.9,20.9S725.7,171,714.2,171z
		 M714.2,131.8c-10.1,0-18.4,8.2-18.4,18.4c0,10.1,8.2,18.4,18.4,18.4s18.4-8.2,18.4-18.4C732.5,140,724.3,131.8,714.2,131.8z"/>
</g>
<g>
	<rect x="771.7" y="0.6" fill="#222221" width="2.5" height="169.5"/>
</g>
<g>
	<rect x="810.9" y="0.7" fill="#222221" width="2.5" height="169.5"/>
</g>
<g>
	<path fill="#222221" d="M792.6,131.4c-11.5,0-20.9-9.4-20.9-20.9s9.4-20.9,20.9-20.9s20.9,9.4,20.9,20.9S804.1,131.4,792.6,131.4z
		 M792.6,92.2c-10.1,0-18.4,8.2-18.4,18.4s8.2,18.4,18.4,18.4c10.2,0,18.4-8.2,18.4-18.4S802.7,92.2,792.6,92.2z"/>
</g>
<g>
	<path fill="#222221" d="M792.6,92.2c-11.5,0-20.9-9.4-20.9-20.9h2.5c0,10.1,8.2,18.4,18.4,18.4c10.2,0,18.4-8.2,18.4-18.4h2.5
		C813.4,82.8,804.1,92.2,792.6,92.2z"/>
</g>
<g>
	<path fill="#222221" d="M792.6,171c-11.5,0-20.9-9.4-20.9-20.9s9.4-20.9,20.9-20.9s20.9,9.4,20.9,20.9S804.1,171,792.6,171z
		 M792.6,131.8c-10.1,0-18.4,8.2-18.4,18.4c0,10.1,8.2,18.4,18.4,18.4c10.2,0,18.4-8.2,18.4-18.4C810.9,140,802.7,131.8,792.6,131.8
		z"/>
</g>
<g>
	<path fill="#222221" d="M493.1,87.5h-87.6V0.2h1.5c47.5,0,86.1,38.6,86.1,86.1V87.5z M408,85h82.6C489.9,39.8,453.2,3.2,408,2.6V85
		z"/>
</g>
<g>
	<path fill="#222221" d="M491.6,172.3c-47.5,0-86.1-38.6-86.1-86.1V85h87.6v87.4L491.6,172.3z M408,87.5
		c0.7,45.2,37.4,81.8,82.6,82.4V87.5H408z"/>
</g>
<g>
	<path fill="#222221" d="M578.2,87.5h-87.6V0.2h1.5c47.5,0,86.1,38.6,86.1,86.1V87.5z M493.1,85h82.6C575,39.8,538.3,3.2,493.1,2.6
		V85z"/>
</g>
<g>
	<path fill="#222221" d="M576.7,172.3c-47.5,0-86.1-38.6-86.1-86.1V85h87.6v87.4L576.7,172.3z M493.1,87.5
		c0.7,45.2,37.4,81.8,82.6,82.4V87.5H493.1z"/>
</g>
<g>
	<path fill="#222221" d="M1002,81.4c-11.5,0-20.9-9.4-20.9-20.9s9.4-20.9,20.9-20.9s20.9,9.4,20.9,20.9S1013.5,81.4,1002,81.4z
		 M1002,42.1c-10.1,0-18.4,8.2-18.4,18.4s8.2,18.4,18.4,18.4c10.1,0,18.4-8.2,18.4-18.4S1012.1,42.1,1002,42.1z"/>
</g>
<g>
	<path fill="#222221" d="M1022.8,99.7h-2.5c0-10.1-8.2-18.4-18.4-18.4c-10.1,0-18.4,8.2-18.4,18.4H981c0-11.5,9.4-20.9,20.9-20.9
		S1022.8,88.2,1022.8,99.7z"/>
</g>
<g>
	<path fill="#222221" d="M1002,41.8c-11.5,0-20.9-9.4-20.9-20.9S990.5,0,1002,0s20.9,9.4,20.9,20.9S1013.5,41.8,1002,41.8z
		 M1002,2.6c-10.1,0-18.4,8.2-18.4,18.4s8.2,18.4,18.4,18.4c10.1,0,18.4-8.2,18.4-18.4S1012.1,2.6,1002,2.6z"/>
</g>
<g>
	<rect x="1020.3" y="0.6" fill="#222221" width="2.5" height="169.5"/>
</g>
<g>
	<rect x="1059.5" y="0.7" fill="#222221" width="2.5" height="169.5"/>
</g>
<g>
	<rect x="981.2" y="0.6" fill="#222221" width="2.5" height="170"/>
</g>
<g>
	<path fill="#222221" d="M1041.2,131.4c-11.5,0-20.9-9.4-20.9-20.9s9.4-20.9,20.9-20.9s20.9,9.4,20.9,20.9
		S1052.7,131.4,1041.2,131.4z M1041.2,92.2c-10.1,0-18.4,8.2-18.4,18.4s8.2,18.4,18.4,18.4c10.1,0,18.4-8.2,18.4-18.4
		S1051.3,92.2,1041.2,92.2z"/>
</g>
<g>
	<path fill="#222221" d="M1041.2,92.2c-11.5,0-20.9-9.4-20.9-20.9h2.5c0,10.1,8.2,18.4,18.4,18.4c10.1,0,18.4-8.2,18.4-18.4h2.5
		C1062,82.8,1052.7,92.2,1041.2,92.2z"/>
</g>
<g>
	<path fill="#222221" d="M1041.2,171c-11.5,0-20.9-9.4-20.9-20.9s9.4-20.9,20.9-20.9s20.9,9.4,20.9,20.9S1052.7,171,1041.2,171z
		 M1041.2,131.8c-10.1,0-18.4,8.2-18.4,18.4c0,10.1,8.2,18.4,18.4,18.4c10.1,0,18.4-8.2,18.4-18.4
		C1059.5,140,1051.3,131.8,1041.2,131.8z"/>
</g>
<g>
	<path fill="#222221" d="M1080.4,81.4c-11.5,0-20.9-9.4-20.9-20.9s9.4-20.9,20.9-20.9s20.9,9.4,20.9,20.9S1091.9,81.4,1080.4,81.4z
		 M1080.4,42.1c-10.1,0-18.4,8.2-18.4,18.4s8.2,18.4,18.4,18.4c10.2,0,18.4-8.2,18.4-18.4S1090.5,42.1,1080.4,42.1z"/>
</g>
<g>
	<path fill="#222221" d="M1080.4,120.6c-11.5,0-20.9-9.4-20.9-20.9s9.4-20.9,20.9-20.9s20.9,9.4,20.9,20.9
		S1091.9,120.6,1080.4,120.6z M1080.4,81.4c-10.1,0-18.4,8.2-18.4,18.4s8.2,18.4,18.4,18.4c10.2,0,18.4-8.2,18.4-18.4
		S1090.5,81.4,1080.4,81.4z"/>
</g>
<g>
	<path fill="#222221" d="M1101.2,138.9h-2.5c0-10.1-8.2-18.4-18.4-18.4c-10.2,0-18.4,8.2-18.4,18.4h-2.5c0-11.5,9.4-20.9,20.9-20.9
		S1101.2,127.4,1101.2,138.9z"/>
</g>
<g>
	<path fill="#222221" d="M1080.4,41.8c-11.5,0-20.9-9.4-20.9-20.9S1068.9,0,1080.4,0s20.9,9.4,20.9,20.9S1091.9,41.8,1080.4,41.8z
		 M1080.4,2.6c-10.1,0-18.4,8.2-18.4,18.4s8.2,18.4,18.4,18.4c10.2,0,18.4-8.2,18.4-18.4S1090.5,2.6,1080.4,2.6z"/>
</g>
<g>
	<path fill="#222221" d="M1158.8,81.4c-11.5,0-20.9-9.4-20.9-20.9s9.4-20.9,20.9-20.9s20.9,9.4,20.9,20.9S1170.3,81.4,1158.8,81.4z
		 M1158.8,42.2c-10.1,0-18.4,8.2-18.4,18.4s8.2,18.4,18.4,18.4c10.2,0,18.4-8.2,18.4-18.4S1168.9,42.2,1158.8,42.2z"/>
</g>
<g>
	<path fill="#222221" d="M1158.8,120.6c-11.5,0-20.9-9.4-20.9-20.9s9.4-20.9,20.9-20.9s20.9,9.4,20.9,20.9
		S1170.3,120.6,1158.8,120.6z M1158.8,81.4c-10.1,0-18.4,8.2-18.4,18.4s8.2,18.4,18.4,18.4c10.2,0,18.4-8.2,18.4-18.4
		S1168.9,81.4,1158.8,81.4z"/>
</g>
<g>
	<path fill="#222221" d="M1179.7,138.9h-2.5c0-10.1-8.2-18.4-18.4-18.4c-10.2,0-18.4,8.2-18.4,18.4h-2.5c0-11.5,9.4-20.9,20.9-20.9
		S1179.7,127.4,1179.7,138.9z"/>
</g>
<g>
	<path fill="#222221" d="M1158.8,41.8c-11.5,0-20.9-9.4-20.9-20.9S1147.3,0,1158.8,0s20.9,9.4,20.9,20.9S1170.3,41.8,1158.8,41.8z
		 M1158.8,2.6c-10.1,0-18.4,8.2-18.4,18.4s8.2,18.4,18.4,18.4c10.2,0,18.4-8.2,18.4-18.4S1168.9,2.6,1158.8,2.6z"/>
</g>
<g>
	<rect x="1098.7" y="0.6" fill="#222221" width="2.5" height="169.5"/>
</g>
<g>
	<rect x="1138" y="0.7" fill="#222221" width="2.5" height="169.5"/>
</g>
<g>
	<path fill="#222221" d="M1119.6,131.4c-11.5,0-20.9-9.4-20.9-20.9s9.4-20.9,20.9-20.9s20.9,9.4,20.9,20.9
		S1131.1,131.4,1119.6,131.4z M1119.6,92.2c-10.1,0-18.4,8.2-18.4,18.4s8.2,18.4,18.4,18.4c10.2,0,18.4-8.2,18.4-18.4
		S1129.8,92.2,1119.6,92.2z"/>
</g>
<g>
	<path fill="#222221" d="M1119.6,92.2c-11.5,0-20.9-9.4-20.9-20.9h2.5c0,10.1,8.2,18.4,18.4,18.4c10.2,0,18.4-8.2,18.4-18.4h2.5
		C1140.5,82.8,1131.1,92.2,1119.6,92.2z"/>
</g>
<g>
	<path fill="#222221" d="M1119.6,171c-11.5,0-20.9-9.4-20.9-20.9s9.4-20.9,20.9-20.9s20.9,9.4,20.9,20.9S1131.1,171,1119.6,171z
		 M1119.6,131.8c-10.1,0-18.4,8.2-18.4,18.4c0,10.1,8.2,18.4,18.4,18.4c10.2,0,18.4-8.2,18.4-18.4
		C1138,140,1129.8,131.8,1119.6,131.8z"/>
</g>
<g>
	<rect x="1177.2" y="0.6" fill="#222221" width="2.5" height="169.5"/>
</g>
<g>
	<rect x="1216.4" y="0.7" fill="#222221" width="2.5" height="169.5"/>
</g>
<g>
	<path fill="#222221" d="M1198,131.4c-11.5,0-20.9-9.4-20.9-20.9s9.4-20.9,20.9-20.9s20.9,9.4,20.9,20.9S1209.5,131.4,1198,131.4z
		 M1198,92.2c-10.1,0-18.4,8.2-18.4,18.4s8.2,18.4,18.4,18.4s18.4-8.2,18.4-18.4S1208.2,92.2,1198,92.2z"/>
</g>
<g>
	<path fill="#222221" d="M1198,92.2c-11.5,0-20.9-9.4-20.9-20.9h2.5c0,10.1,8.2,18.4,18.4,18.4s18.4-8.2,18.4-18.4h2.5
		C1218.9,82.8,1209.5,92.2,1198,92.2z"/>
</g>
<g>
	<path fill="#222221" d="M1198,171c-11.5,0-20.9-9.4-20.9-20.9s9.4-20.9,20.9-20.9s20.9,9.4,20.9,20.9S1209.5,171,1198,171z
		 M1198,131.8c-10.1,0-18.4,8.2-18.4,18.4c0,10.1,8.2,18.4,18.4,18.4s18.4-8.2,18.4-18.4C1216.4,140,1208.2,131.8,1198,131.8z"/>
</g>
<g>
	<path fill="#222221" d="M898.5,87.5h-87.6V0.2h1.5c47.5,0,86.1,38.6,86.1,86.1V87.5z M813.4,85H896c-0.7-45.2-37.4-81.8-82.6-82.4
		V85z"/>
</g>
<g>
	<path fill="#222221" d="M86.1,172.3C38.6,172.3,0,133.7,0,86.2V85h87.6v87.4L86.1,172.3z M2.5,87.5c0.7,45.2,37.4,81.8,82.6,82.4
		V87.5H2.5z"/>
</g>
<g>
	<path fill="#222221" d="M983.7,87.5h-87.6V0.2h1.5c47.5,0,86.1,38.6,86.1,86.1V87.5z M898.5,85h82.6c-0.7-45.2-37.4-81.8-82.6-82.4
		V85z"/>
</g>
<g>
	<path fill="#222221" d="M982.2,172.3c-47.5,0-86.1-38.6-86.1-86.1V85h87.6v87.4L982.2,172.3z M898.6,87.5
		c0.7,45.2,37.4,81.8,82.6,82.4V87.5H898.6z"/>
</g>
<g>
	<path fill="#222221" d="M1407.4,81.4c-11.5,0-20.9-9.4-20.9-20.9s9.4-20.9,20.9-20.9s20.9,9.4,20.9,20.9S1418.9,81.4,1407.4,81.4z
		 M1407.4,42.1c-10.1,0-18.4,8.2-18.4,18.4s8.2,18.4,18.4,18.4c10.2,0,18.4-8.2,18.4-18.4S1417.5,42.1,1407.4,42.1z"/>
</g>
<g>
	<path fill="#222221" d="M1428.3,99.7h-2.5c0-10.1-8.2-18.4-18.4-18.4c-10.2,0-18.4,8.2-18.4,18.4h-2.5c0-11.5,9.4-20.9,20.9-20.9
		S1428.3,88.2,1428.3,99.7z"/>
</g>
<g>
	<path fill="#222221" d="M1407.4,41.8c-11.5,0-20.9-9.4-20.9-20.9S1395.9,0,1407.4,0s20.9,9.4,20.9,20.9S1418.9,41.8,1407.4,41.8z
		 M1407.4,2.6c-10.1,0-18.4,8.2-18.4,18.4s8.2,18.4,18.4,18.4c10.2,0,18.4-8.2,18.4-18.4S1417.5,2.6,1407.4,2.6z"/>
</g>
<g>
	<rect x="1425.8" y="0.6" fill="#222221" width="2.5" height="169.5"/>
</g>
<g>
	<rect x="1465" y="0.7" fill="#222221" width="2.5" height="169.5"/>
</g>
<g>
	<rect x="1386.6" y="0.6" fill="#222221" width="2.5" height="170"/>
</g>
<g>
	<path fill="#222221" d="M1446.6,131.4c-11.5,0-20.9-9.4-20.9-20.9s9.4-20.9,20.9-20.9s20.9,9.4,20.9,20.9
		S1458.1,131.4,1446.6,131.4z M1446.6,92.2c-10.1,0-18.4,8.2-18.4,18.4s8.2,18.4,18.4,18.4c10.2,0,18.4-8.2,18.4-18.4
		S1456.7,92.2,1446.6,92.2z"/>
</g>
<g>
	<path fill="#222221" d="M1446.6,92.2c-11.5,0-20.9-9.4-20.9-20.9h2.5c0,10.1,8.2,18.4,18.4,18.4c10.2,0,18.4-8.2,18.4-18.4h2.5
		C1467.5,82.8,1458.1,92.2,1446.6,92.2z"/>
</g>
<g>
	<path fill="#222221" d="M1446.6,171c-11.5,0-20.9-9.4-20.9-20.9s9.4-20.9,20.9-20.9s20.9,9.4,20.9,20.9S1458.1,171,1446.6,171z
		 M1446.6,131.8c-10.1,0-18.4,8.2-18.4,18.4c0,10.1,8.2,18.4,18.4,18.4c10.2,0,18.4-8.2,18.4-18.4
		C1465,140,1456.7,131.8,1446.6,131.8z"/>
</g>
<g>
	<path fill="#222221" d="M1485.8,81.4c-11.5,0-20.9-9.4-20.9-20.9s9.4-20.9,20.9-20.9s20.9,9.4,20.9,20.9S1497.3,81.4,1485.8,81.4z
		 M1485.8,42.1c-10.1,0-18.4,8.2-18.4,18.4s8.2,18.4,18.4,18.4c10.2,0,18.4-8.2,18.4-18.4S1495.9,42.1,1485.8,42.1z"/>
</g>
<g>
	<path fill="#222221" d="M1485.8,120.6c-11.5,0-20.9-9.4-20.9-20.9s9.4-20.9,20.9-20.9s20.9,9.4,20.9,20.9
		S1497.3,120.6,1485.8,120.6z M1485.8,81.4c-10.1,0-18.4,8.2-18.4,18.4s8.2,18.4,18.4,18.4c10.2,0,18.4-8.2,18.4-18.4
		S1495.9,81.4,1485.8,81.4z"/>
</g>
<g>
	<path fill="#222221" d="M1506.6,138.9h-2.5c0-10.1-8.2-18.4-18.4-18.4c-10.2,0-18.4,8.2-18.4,18.4h-2.5c0-11.5,9.4-20.9,20.9-20.9
		S1506.6,127.4,1506.6,138.9z"/>
</g>
<g>
	<path fill="#222221" d="M1485.8,41.8c-11.5,0-20.9-9.4-20.9-20.9S1474.3,0,1485.8,0s20.9,9.4,20.9,20.9S1497.3,41.8,1485.8,41.8z
		 M1485.8,2.6c-10.1,0-18.4,8.2-18.4,18.4s8.2,18.4,18.4,18.4c10.2,0,18.4-8.2,18.4-18.4S1495.9,2.6,1485.8,2.6z"/>
</g>
<g>
	<path fill="#222221" d="M1564.3,81.4c-11.5,0-20.9-9.4-20.9-20.9s9.4-20.9,20.9-20.9s20.9,9.4,20.9,20.9S1575.8,81.4,1564.3,81.4z
		 M1564.3,42.2c-10.1,0-18.4,8.2-18.4,18.4s8.2,18.4,18.4,18.4c10.2,0,18.4-8.2,18.4-18.4S1574.4,42.2,1564.3,42.2z"/>
</g>
<g>
	<path fill="#222221" d="M1564.3,120.6c-11.5,0-20.9-9.4-20.9-20.9s9.4-20.9,20.9-20.9s20.9,9.4,20.9,20.9
		S1575.8,120.6,1564.3,120.6z M1564.3,81.4c-10.1,0-18.4,8.2-18.4,18.4s8.2,18.4,18.4,18.4c10.2,0,18.4-8.2,18.4-18.4
		S1574.4,81.4,1564.3,81.4z"/>
</g>
<g>
	<path fill="#222221" d="M1585.1,138.9h-2.5c0-10.1-8.2-18.4-18.4-18.4c-10.2,0-18.4,8.2-18.4,18.4h-2.5c0-11.5,9.4-20.9,20.9-20.9
		S1585.1,127.4,1585.1,138.9z"/>
</g>
<g>
	<path fill="#222221" d="M1564.3,41.8c-11.5,0-20.9-9.4-20.9-20.9S1552.8,0,1564.3,0s20.9,9.4,20.9,20.9S1575.8,41.8,1564.3,41.8z
		 M1564.3,2.6c-10.1,0-18.4,8.2-18.4,18.4s8.2,18.4,18.4,18.4c10.2,0,18.4-8.2,18.4-18.4S1574.4,2.6,1564.3,2.6z"/>
</g>
<g>
	<rect x="1504.1" y="0.6" fill="#222221" width="2.5" height="169.5"/>
</g>
<g>
	<rect x="1543.4" y="0.7" fill="#222221" width="2.5" height="169.5"/>
</g>
<g>
	<path fill="#222221" d="M1525.1,131.4c-11.5,0-20.9-9.4-20.9-20.9s9.4-20.9,20.9-20.9s20.9,9.4,20.9,20.9
		S1536.6,131.4,1525.1,131.4z M1525.1,92.2c-10.1,0-18.4,8.2-18.4,18.4s8.2,18.4,18.4,18.4c10.2,0,18.4-8.2,18.4-18.4
		S1535.2,92.2,1525.1,92.2z"/>
</g>
<g>
	<path fill="#222221" d="M1525.1,92.2c-11.5,0-20.9-9.4-20.9-20.9h2.5c0,10.1,8.2,18.4,18.4,18.4c10.2,0,18.4-8.2,18.4-18.4h2.5
		C1545.9,82.8,1536.6,92.2,1525.1,92.2z"/>
</g>
<g>
	<path fill="#222221" d="M1525.1,171c-11.5,0-20.9-9.4-20.9-20.9s9.4-20.9,20.9-20.9s20.9,9.4,20.9,20.9S1536.6,171,1525.1,171z
		 M1525.1,131.8c-10.1,0-18.4,8.2-18.4,18.4c0,10.1,8.2,18.4,18.4,18.4c10.2,0,18.4-8.2,18.4-18.4
		C1543.4,140,1535.2,131.8,1525.1,131.8z"/>
</g>
<g>
	<rect x="1582.6" y="0.6" fill="#222221" width="2.5" height="169.5"/>
</g>
<g>
	<rect x="1621.8" y="0.7" fill="#222221" width="2.5" height="169.5"/>
</g>
<g>
	<path fill="#222221" d="M1603.5,131.4c-11.5,0-20.9-9.4-20.9-20.9s9.4-20.9,20.9-20.9s20.9,9.4,20.9,20.9S1615,131.4,1603.5,131.4z
		 M1603.5,92.2c-10.1,0-18.4,8.2-18.4,18.4s8.2,18.4,18.4,18.4s18.4-8.2,18.4-18.4S1613.6,92.2,1603.5,92.2z"/>
</g>
<g>
	<path fill="#222221" d="M1603.5,92.2c-11.5,0-20.9-9.4-20.9-20.9h2.5c0,10.1,8.2,18.4,18.4,18.4s18.4-8.2,18.4-18.4h2.5
		C1624.3,82.8,1615,92.2,1603.5,92.2z"/>
</g>
<g>
	<path fill="#222221" d="M1603.5,171c-11.5,0-20.9-9.4-20.9-20.9s9.4-20.9,20.9-20.9s20.9,9.4,20.9,20.9S1615,171,1603.5,171z
		 M1603.5,131.8c-10.1,0-18.4,8.2-18.4,18.4c0,10.1,8.2,18.4,18.4,18.4s18.4-8.2,18.4-18.4C1621.8,140,1613.6,131.8,1603.5,131.8z"
		/>
</g>
<g>
	<path fill="#222221" d="M1304,87.5h-87.6V0.2h1.5c47.5,0,86.1,38.6,86.1,86.1V87.5z M1218.9,85h82.6c-0.7-45.2-37.4-81.8-82.6-82.4
		V85z"/>
</g>
<g>
	<path fill="#222221" d="M1302.5,172.3c-47.5,0-86.1-38.6-86.1-86.1V85h87.6v87.4L1302.5,172.3z M1218.9,87.5
		c0.7,45.2,37.4,81.8,82.6,82.4V87.5H1218.9z"/>
</g>
<g>
	<path fill="#222221" d="M1389.1,87.5h-87.6V0.2h1.5c47.5,0,86.1,38.6,86.1,86.1V87.5z M1304,85h82.6c-0.7-45.2-37.4-81.8-82.6-82.4
		V85z"/>
</g>
<g>
	<path fill="#222221" d="M1387.6,172.3c-47.5,0-86.1-38.6-86.1-86.1V85h87.6v87.4L1387.6,172.3z M1304,87.5
		c0.7,45.2,37.4,81.8,82.6,82.4V87.5H1304z"/>
</g>
</svg>
