<?xml version="1.0" encoding="utf-8"?>
<!-- Generator: Adobe Illustrator 16.0.0, SVG Export Plug-In . SVG Version: 6.00 Build 0)  -->
<!DOCTYPE svg PUBLIC "-//W3C//DTD SVG 1.1//EN" "http://www.w3.org/Graphics/SVG/1.1/DTD/svg11.dtd" [
	<!ENTITY ns_extend "http://ns.adobe.com/Extensibility/1.0/">
	<!ENTITY ns_ai "http://ns.adobe.com/AdobeIllustrator/10.0/">
	<!ENTITY ns_graphs "http://ns.adobe.com/Graphs/1.0/">
	<!ENTITY ns_vars "http://ns.adobe.com/Variables/1.0/">
	<!ENTITY ns_imrep "http://ns.adobe.com/ImageReplacement/1.0/">
	<!ENTITY ns_sfw "http://ns.adobe.com/SaveForWeb/1.0/">
	<!ENTITY ns_custom "http://ns.adobe.com/GenericCustomNamespace/1.0/">
	<!ENTITY ns_adobe_xpath "http://ns.adobe.com/XPath/1.0/">
]>
<svg version="1.1" id="Слой_1" xmlns:x="&ns_extend;" xmlns:i="&ns_ai;" xmlns:graph="&ns_graphs;"
	 xmlns="http://www.w3.org/2000/svg" xmlns:xlink="http://www.w3.org/1999/xlink" x="0px" y="0px" width="181.5791px"
	 height="100.6563px" viewBox="0 0 181.5791 100.6563" enable-background="new 0 0 181.5791 100.6563" xml:space="preserve">
<metadata>
	<sfw  xmlns="&ns_sfw;">
		<slices></slices>
		<sliceSourceBounds  width="360" height="2091" x="120" y="-1466" bottomLeftOrigin="true"></sliceSourceBounds>
	</sfw>
</metadata>
<g>
	<defs>
		<rect id="SVGID_1_" x="-176.874" y="-1698.4619" width="360" height="2091"/>
	</defs>
	<clipPath id="SVGID_2_">
		<use xlink:href="#SVGID_1_"  overflow="visible"/>
	</clipPath>
	<path clip-path="url(#SVGID_2_)" fill="none" stroke="#222221" stroke-width="1.5" stroke-miterlimit="10" d="M0.75,50.2998
		v49.5254c27.3574,0,49.5371-22.1787,49.5371-49.5371L0.75,50.2998z"/>
	<path clip-path="url(#SVGID_2_)" fill="none" stroke="#222221" stroke-width="1.5" stroke-miterlimit="10" d="M50.2861,50.2998
		v49.5254c27.3584,0,49.5371-22.1787,49.5371-49.5371L50.2861,50.2998z"/>
	<path clip-path="url(#SVGID_2_)" fill="none" stroke="#222221" stroke-width="1.5" stroke-miterlimit="10" d="M50.2861,0.7627
		v49.5254c27.3584,0,49.5371-22.1787,49.5371-49.5371L50.2861,0.7627z"/>
	<path clip-path="url(#SVGID_2_)" fill="none" stroke="#222221" stroke-width="1.5" stroke-miterlimit="10" d="M0.75,0.7627v49.5254
		c27.3574,0,49.5371-22.1787,49.5371-49.5371L0.75,0.7627z"/>
	<path clip-path="url(#SVGID_2_)" fill="none" stroke="#222221" stroke-width="1.5" stroke-miterlimit="10" d="M124.543,50.2959
		c-13.6816,0-24.7725-11.0908-24.7725-24.7715c0-13.6826,11.0908-24.7744,24.7725-24.7744"/>
	<path clip-path="url(#SVGID_2_)" fill="none" stroke="#222221" stroke-width="1.5" stroke-miterlimit="10" d="M156.0127,50.3604
		c13.6826,0,24.7734,11.0908,24.7734,24.7725s-11.0908,24.7734-24.7734,24.7734"/>
	<polyline clip-path="url(#SVGID_2_)" fill="none" stroke="#222221" stroke-width="1.5" stroke-miterlimit="10" points="
		99.8584,99.7109 99.8584,1.3955 99.8584,1.0342 	"/>
	<polyline clip-path="url(#SVGID_2_)" fill="none" stroke="#222221" stroke-width="1.5" stroke-miterlimit="10" points="
		181.5791,50.2969 100.125,50.2969 99.8271,50.2969 	"/>
</g>
</svg>
