<svg xmlns="http://www.w3.org/2000/svg" xml:space="preserve" style="enable-background:new 0 0 811.6 135.8" version="1.0" viewBox="0 0 811.6 135.8">
	<path d="M35.4 12h44.1v44C72 35.7 55.8 19.5 35.4 12m22.1 111.8c9.7-4.6 17.5-12.5 22.1-22.1v22.1H57.5zM12.2 84H35v39.9H12.2V84zM35 79.4H12.2V12.1c36.6 1.2 66.1 30.7 67.3 67.3H35zm4.6 4.6h39.8c-1.1 21.4-18.4 38.7-39.8 39.8V84zM7.7 7.4v121h76.4V7.4H7.7zM132.5 44.9c0-7-3.3-11-8.6-11.8-1.1-.2-2.2-.2-3.8-.2h-4.9v24.8h4.8c1.6 0 2.7 0 3.8-.2 5.3-.9 8.7-5.3 8.7-12.6m5.7 0c0 9.9-5.9 15.8-13.5 16.7-1.7.2-2.5.2-4.2.2H110V28.7h10.7c1.8 0 2.6 0 4.2.2 7.6.9 13.3 5.9 13.3 16M143.9 36.3h5.3v25.5h-5.3V36.3zm5.8-5.9c0 1.8-1.3 3.1-3.1 3.1s-3.1-1.3-3.1-3.1c0-1.7 1.3-3 3.1-3s3.1 1.3 3.1 3M174.6 43.6h-5.4c-.5-2.7-2.1-4.3-4.7-4.3-2.5 0-3.7 1.4-3.7 3.3 0 2.3 1.9 3.2 5.7 4.3 5.6 1.4 8.5 3.7 8.5 8.1 0 4.9-4.4 7.4-9.9 7.4-5.7 0-9.8-2.6-10.6-8.3h5.4c.6 3.2 2.8 4.6 5.4 4.6 2.5 0 4.4-1.1 4.4-3.2 0-2.2-1.7-3.4-6-4.6-4.7-1.2-8.1-3.2-8.1-7.6 0-4.8 3.8-7.6 9.4-7.6 5.8 0 9 3.3 9.6 7.9M186.6 53.5v2.1c.2 2.5 1.1 3 4.6 2.7V62c-1.3.2-2.6.3-3.9.3-4 0-5.7-1.5-5.9-4.9V40.2h-3.6v-3.7h3.6v-6.1h5.2v6.1h5v3.7h-5v13.3zM210.3 36v4.1c-4.9-.3-7.9 2.2-7.9 8.5v13.3h-5.3V36.3h5.3v4.3l2.2-3.5c1.1-.9 2.7-1.4 3.9-1.4.7 0 1.2.1 1.8.3M214.8 36.3h5.3v25.5h-5.3V36.3zm5.7-5.9c0 1.8-1.3 3.1-3.1 3.1s-3.1-1.3-3.1-3.1c0-1.7 1.3-3 3.1-3s3.1 1.3 3.1 3M247.3 49.1c0-5.5-2.6-9.6-7.1-9.6-3.9 0-7.4 2.5-7.4 9.3v1.3c0 6.2 3.8 8.6 7.1 8.6 4.3-.1 7.4-3.3 7.4-9.6m5.6-.5c0 9.4-5.8 13.9-12.4 13.9-2.1 0-4.8-.6-6-1.6l-1.7-2.6v3.5h-5.3V26.5h5.3v13.8l1.9-2.7c1.4-1.2 4.1-1.9 6.7-1.9 7.4 0 11.5 5.4 11.5 12.9M280.6 61.8h-5.2v-4.4l-1.8 3.2c-2 1.4-3.9 1.9-6.5 1.9-5.3 0-8.4-3-8.9-6.5-.2-1.3-.2-2.5-.2-4.5V36.3h5.2v14.1c0 .8 0 2.2.2 3.5.4 2.8 2.2 4.6 5.5 4.6 3.7 0 6.5-2.8 6.5-10.2v-12h5.2v25.5zM294.4 53.5v2.1c.2 2.5 1.1 3 4.6 2.7V62c-1.3.2-2.6.3-3.9.3-4 0-5.7-1.5-5.9-4.9V40.2h-3.6v-3.7h3.6v-6.1h5.2v6.1h5v3.7h-5v13.3zM308.5 46.8h12.9c-.4-4.7-2.5-7.4-6.1-7.4-3.6.1-6.2 2.5-6.8 7.4m18.3 3.7h-18.3c.4 6.1 3.2 8.1 6.7 8.1 3.1 0 5.5-1.9 6-5.1h5.4c-1.1 6-5.9 8.9-11.5 8.9-6.8 0-11.9-4.3-11.9-13.4 0-8.1 5.1-13.5 12.5-13.5s11.4 5.6 11.4 12.8c-.2.6-.2 1.3-.3 2.2M350.8 49.3V48c0-6.2-3.8-8.5-7.1-8.5-4.2 0-7.4 3.2-7.4 9.6 0 5.5 2.6 9.6 7.1 9.6 4-.1 7.4-2.5 7.4-9.4m5.3 12.5h-5.3v-4l-1.9 2.8c-1.5 1.1-4.1 1.9-6.7 1.9-7.3 0-11.5-5.5-11.5-13 0-9.3 5.8-13.8 12.4-13.8 2.1 0 4.8.6 6 1.6l1.7 2.6V26.5h5.3v35.3zM132.5 86.9c0-7-3.3-11-8.6-11.8-1.1-.2-2.2-.2-3.8-.2h-4.9v24.8h4.8c1.6 0 2.7 0 3.8-.2 5.3-.8 8.7-5.2 8.7-12.6m5.7 0c0 9.9-5.9 15.8-13.5 16.7-1.7.2-2.5.2-4.2.2H110v-33h10.7c1.8 0 2.6 0 4.2.2 7.6.8 13.3 5.9 13.3 15.9M147.5 88.9h12.9c-.4-4.7-2.5-7.4-6.1-7.4-3.6.1-6.2 2.5-6.8 7.4m18.3 3.7h-18.3c.4 6.1 3.2 8.1 6.7 8.1 3.1 0 5.5-1.9 6-5.1h5.4c-1.1 6-5.9 8.9-11.5 8.9-6.8 0-11.9-4.3-11.9-13.4 0-8.1 5.1-13.5 12.5-13.5s11.4 5.6 11.4 12.8c-.3.6-.3 1.3-.3 2.2M189.5 85.7h-5.4c-.5-2.7-2.1-4.3-4.7-4.3-2.5 0-3.7 1.4-3.7 3.3 0 2.3 1.9 3.2 5.7 4.3 5.6 1.4 8.5 3.7 8.5 8.1 0 4.9-4.4 7.4-9.9 7.4-5.7 0-9.8-2.6-10.6-8.3h5.4c.6 3.2 2.8 4.6 5.4 4.6 2.5 0 4.4-1.1 4.4-3.2 0-2.2-1.7-3.4-6-4.6-4.7-1.2-8.1-3.2-8.1-7.6 0-4.8 3.8-7.6 9.4-7.6 5.8 0 9.1 3.2 9.6 7.9M195.2 78.4h5.3v25.5h-5.3V78.4zm5.8-5.9c0 1.8-1.3 3.1-3.1 3.1s-3.1-1.3-3.1-3.1c0-1.7 1.3-3 3.1-3s3.1 1.3 3.1 3M226.2 91.2v-1.1c0-6.2-3.8-8.5-7.1-8.5-4.2 0-7.4 3.1-7.4 9.4 0 5.5 2.6 9.5 7.1 9.5 4 0 7.4-2.5 7.4-9.3m5.3 6.4v4.9c-.3 7.7-5.1 11.6-12.8 11.6-7.4 0-11.3-3.1-11.8-8.6v-.5h5.2v.4c.3 2.7 2.7 4.6 6.6 4.6 4.6 0 7.3-2.5 7.5-7v-3.4l-1.9 2.8c-1.5 1.1-3.9 1.9-6.5 1.9-7.4 0-11.6-5.4-11.6-12.9 0-9.3 5.8-13.7 12.4-13.7 2.1 0 4.8.6 6 1.6l1.7 2.6v-3.5h5.3v19.2zM261.6 89.6V104h-5.3V90.2c0-1.2 0-2.3-.1-3.6-.2-2.9-1.8-4.9-5.4-4.9-3.7 0-6.6 2.9-6.6 10.8v11.4H239V78.4h5.3v4.2l1.7-2.9c2-1.6 3.9-2 6.5-2 5.5 0 8.6 2.8 9.1 7.3v4.6M523.7 72.2l-3.4-2.6-3.4 2.5 1.4-3.9-3.3-2.4h4l1.3-3.9 1.1 3.9h4.1l-3.3 2.4 1.5 4zm-3.5 13.2-3.4-2.6-3.4 2.5 1.4-3.9-3.3-2.4h4l1.3-3.9 1.1 3.9h4.1l-3.3 2.4 1.5 4zm-9.7 9.7-3.4-2.6-3.4 2.5 1.4-3.9-3.3-2.4h4l1.3-3.9 1.1 3.9h4.1l-3.3 2.4 1.5 4zm-14.6-53.3 1.4 4-3.4-2.6-3.4 2.5 1.4-3.9-3.3-2.4h4l1.3-3.9 1.1 3.9h4.1l-3.2 2.4zm1.4 56.9-3.4-2.6-3.4 2.5 1.4-3.9-3.3-2.4h4l1.3-3.9 1.1 3.9h4.1l-3.3 2.4 1.5 4zm-14.6-53.3 1.4 4-3.4-2.6-3.4 2.5 1.4-3.9-3.3-2.4h4l1.3-3.9 1.1 3.9h4.1l-3.2 2.4zm1.3 49.7-3.4-2.6-3.4 2.5 1.4-3.9-3.3-2.4h4l1.3-3.9 1.1 3.9h4.1l-3.3 2.4 1.5 4zm-13-12.2-3.4 2.5 1.4-3.9-3.3-2.4h4l1.3-3.9 1.1 3.9h4.1l-3.3 2.4 1.4 4-3.3-2.6zm-8.9-17.1h4l1.3-3.9 1.1 3.9h4.1l-3.3 2.4 1.4 3.9-3.4-2.6-3.4 2.5 1.4-3.9-3.2-2.3zm7.6-13.2 1.3-3.9 1.1 3.9h4.1L473 55l1.4 4-3.4-2.6-3.4 2.5L469 55l-3.3-2.4h4zm36.1-9.7 1.3-3.9 1.1 3.9h4.1l-3.3 2.4 1.4 4-3.4-2.6-3.4 2.5 1.4-3.9-3.3-2.4h4.1zm11 5.8 1.1 3.9h4.1l-3.3 2.4 1.4 4-3.4-2.6-3.4 2.5 1.4-3.9-3.3-2.4h4l1.4-3.9zM433.5 107h120.8V27.1H433.5V107zM598.6 46.9v.3h-2.4l-.1-.3c-.6-2.8-2.3-4.7-5.5-4.7-4 0-6.4 3.5-6.4 8.1 0 4.8 2.4 8.2 6.2 8.2 3.2 0 4.9-1.9 5.5-4.7l.1-.3h2.4v.3c-.4 3.5-3 6.6-8.1 6.6-5.6 0-8.8-4.3-8.8-10 0-5.9 3.7-10.2 9.2-10.2 5 .1 7.5 2.9 7.9 6.7zM615.9 52.7c0 4.2-2.3 7.8-7.4 7.8-5.1 0-7.4-3.7-7.4-7.8 0-4.2 2.3-7.8 7.4-7.8 5-.1 7.4 3.6 7.4 7.8zm-2.7 0c0-3.5-1.7-6-4.7-6s-4.7 2.5-4.7 6 1.7 6 4.7 6 4.7-2.5 4.7-6zM617.9 53v-1.6h5.9V53h-5.9zM629.7 43.9v1.5h3.1v1.9h-3.1v12.9h-2.4v-13h-1.6v-1.9h1.6v-1.2c0-.6 0-1.3.1-1.8.3-2.2 1.7-3.4 3.9-3.4.6 0 1.2.1 1.7.1v2c-1.8-.3-3 .1-3.2 1.3-.1.5-.1 1.2-.1 1.6zM648 60.1h-2.4v-2.5l-.9 1.7c-1.3.9-2.4 1.2-3.9 1.2-3.1 0-4.9-1.7-5.2-3.8-.1-.8-.1-1.3-.1-2.6v-8.9h2.4v8.5c0 .5 0 1.3.1 2.1.2 1.7 1.4 2.8 3.5 2.8 2.3 0 4.2-1.7 4.2-6.8v-6.5h2.4v14.8zM665.2 51.7v8.4h-2.4v-8.2c0-.8 0-1.4-.1-2.1-.1-1.7-1.1-3-3.4-3s-4.3 1.7-4.3 6.8v6.5h-2.4V45.2h2.4v2.6l.9-1.7c1.3-1 2.4-1.2 3.9-1.2 3.3 0 5.1 1.7 5.3 4.4.1.6.1 1.2.1 2.4zM682.6 60.1h-2.4v-2.4l-1.1 1.6c-.8.7-2.4 1.2-3.9 1.2-4.4 0-6.8-3.3-6.8-7.6 0-5.5 3.4-8.1 7.3-8.1 1.2 0 2.8.4 3.6 1l1 1.5v-7.8h2.4v20.6zm-2.4-7.3V52c0-3.8-2.4-5.3-4.6-5.3-2.6 0-4.6 2-4.6 5.9 0 3.4 1.5 6 4.5 6 2.5.1 4.7-1.5 4.7-5.8zM699.4 53.4h-10.8c.2 3.9 2.1 5.3 4.3 5.3 1.9 0 3.5-1.2 3.8-3.3h2.5c-.6 3.6-3.4 5.2-6.5 5.2-3.9 0-6.8-2.5-6.8-7.8 0-4.8 3-7.9 7.1-7.9s6.4 3.1 6.4 7.4v1.1zm-10.8-1.9h8.4c-.2-3.1-1.5-4.9-4-4.9-2.4.1-4.1 1.8-4.4 4.9zM716 60.1h-2.4v-2.4l-1.1 1.6c-.8.7-2.4 1.2-3.9 1.2-4.4 0-6.8-3.3-6.8-7.6 0-5.5 3.4-8.1 7.3-8.1 1.2 0 2.8.4 3.6 1l1 1.5v-7.8h2.4v20.6zm-2.5-7.3V52c0-3.8-2.4-5.3-4.6-5.3-2.6 0-4.6 2-4.6 5.9 0 3.4 1.5 6 4.5 6 2.5.1 4.7-1.5 4.7-5.8zM741.2 52.4c0 5.5-3.4 8.1-7.3 8.1-1.2 0-2.8-.4-3.6-1l-1-1.5v2.1H727V39.5h2.4v8.1l1.1-1.6c.8-.7 2.4-1.2 3.9-1.2 4.4 0 6.8 3.3 6.8 7.6zm-2.6.3c0-3.4-1.5-6-4.5-6-2.5 0-4.7 1.6-4.7 5.8v.8c0 3.8 2.4 5.3 4.6 5.3 2.5.1 4.6-2 4.6-5.9zM750.5 61.4c-1.2 3.1-2.8 4.6-5.2 4.6-.5 0-.9 0-1.2-.1v-2h.9c1.5 0 2.5-.6 3.2-2.6l.2-.5-5.9-15.6h2.7l4.4 13.1 4.4-13.1h2.6l-6.1 16.2zM768.5 55.8V57c.1 1.4.7 1.7 2.6 1.5v1.8c-.7.1-1.4.1-2.1.1-1.9 0-2.8-.8-2.9-2.6V47.2h-2v-1.9h2v-3.5h2.4v3.5h2.8v1.9h-2.8v8.6zM787.3 51.7v8.4h-2.4v-8.2c0-.8 0-1.4-.1-2.1-.1-1.7-1.1-3.1-3.4-3-2.3.1-4.3 1.7-4.3 6.8v6.5h-2.4V39.3h2.4v8.5l.9-1.7c1.3-1 2.4-1.2 3.9-1.2 3.3 0 5.1 1.7 5.3 4.4.1.6.1 1.2.1 2.4zM803.9 53.4h-10.8c.2 3.9 2.1 5.3 4.3 5.3 1.9 0 3.5-1.2 3.8-3.3h2.5c-.6 3.6-3.4 5.2-6.5 5.2-3.9 0-6.8-2.5-6.8-7.8 0-4.8 3-7.9 7.1-7.9s6.4 3.1 6.4 7.4c.1.2.1.6 0 1.1zm-10.8-1.9h8.4c-.2-3.1-1.5-4.9-4-4.9-2.3.1-4.1 1.8-4.4 4.9zM596 93.8h-12.9V74.4h12.6v2h-10.2v6.7h9.4v2h-9.4v6.7H596v2zM611.5 93.8h-2.4v-2.5l-.9 1.7c-1.3.9-2.4 1.2-3.9 1.2-3.1 0-4.9-1.7-5.2-3.8-.1-.8-.1-1.3-.1-2.6v-8.9h2.4v8.5c0 .5 0 1.3.1 2.1.2 1.7 1.4 2.8 3.5 2.8 2.3 0 4.2-1.7 4.2-6.8V79h2.4v14.8zM623 78.8v1.8c-2.5-.2-4.4 1.3-4.4 4.7v8.5h-2.4V78.9h2.4v2.3l1.3-2c.6-.4 1.4-.7 2.1-.7.4.1.7.2 1 .3zM638.9 86.4c0 4.2-2.3 7.8-7.4 7.8-5.1 0-7.4-3.7-7.4-7.8 0-4.2 2.3-7.8 7.4-7.8 5.1-.1 7.4 3.6 7.4 7.8zm-2.6 0c0-3.5-1.7-6-4.7-6s-4.7 2.5-4.7 6 1.7 6 4.7 6 4.7-2.5 4.7-6zM656.4 86.2c0 5.5-3.4 8.1-7.3 8.1-1.2 0-2.8-.4-3.6-1l-1-1.5v7.6h-2.4V78.9h2.4v2.4l1.1-1.6c.8-.7 2.4-1.2 3.9-1.2 4.5 0 6.9 3.3 6.9 7.7zm-2.6.2c0-3.4-1.5-6-4.5-6-2.5 0-4.7 1.6-4.7 5.8v.8c0 3.8 2.4 5.3 4.6 5.3 2.6.1 4.6-2 4.6-5.9zM671.9 87.1h-10.8c.2 3.9 2.1 5.3 4.3 5.3 1.9 0 3.5-1.2 3.8-3.3h2.5c-.6 3.6-3.4 5.2-6.5 5.2-3.9 0-6.8-2.5-6.8-7.8 0-4.8 3-7.9 7.1-7.9s6.4 3.1 6.4 7.4v1.1zm-10.8-1.8h8.4c-.2-3.1-1.5-4.9-4-4.9-2.4 0-4.1 1.7-4.4 4.9zM683.7 91.7l-.8 1.6c-1 .7-2.3.9-3.7.9-2.7 0-4.8-1.5-4.8-4.2 0-3.4 2.5-5.1 8.4-5.1h1v-.4c0-.6 0-1.2-.1-1.8-.1-1.4-.9-2.3-2.9-2.3s-3 1.1-3.2 3.1H675c.2-3.2 2.4-5 5.7-5 3.5 0 5 1.5 5.3 3.9.1.6.1 1.3.1 2V90c0 1.1.1 2.1.3 3.8H684l-.3-2.1zm0-3.5v-1.5c-4.1-.3-6.7.6-6.7 3.1 0 1.8 1.2 2.6 3 2.6 2.3 0 3.7-1.5 3.7-4.2zM703.3 85.4v8.4h-2.4v-8.2c0-.8 0-1.4-.1-2.1-.1-1.7-1.1-3-3.4-3s-4.3 1.7-4.3 6.8v6.5h-2.4V78.9h2.4v2.6l.9-1.7c1.3-1 2.4-1.2 3.9-1.2 3.3 0 5.1 1.7 5.3 4.4.1.7.1 1.2.1 2.4zM729.2 86.7c0 .6 0 1.2-.1 1.7-.3 3.2-2.5 5.8-7.2 5.8s-6.9-2.6-7.2-5.8c-.1-.6-.1-1.1-.1-1.7V74.4h2.4v12c0 .6 0 1.2.1 1.7.2 2.4 1.8 4.2 4.8 4.2s4.6-1.7 4.8-4.2c.1-.5.1-1.1.1-1.7v-12h2.4v12.3zM746.2 85.4v8.4h-2.4v-8.2c0-.8 0-1.4-.1-2.1-.1-1.7-1.1-3-3.4-3s-4.3 1.7-4.3 6.8v6.5h-2.4V78.9h2.4v2.6l.9-1.7c1.3-1 2.4-1.2 3.9-1.2 3.3 0 5.1 1.7 5.3 4.4.1.7.1 1.2.1 2.4zM753.3 75.6c0 .9-.7 1.5-1.5 1.5-.9 0-1.5-.7-1.5-1.5s.7-1.5 1.5-1.5c.9-.1 1.5.6 1.5 1.5zm-2.7 18.2V78.9h2.4v14.9h-2.4zM771.2 86.4c0 4.2-2.3 7.8-7.4 7.8-5.1 0-7.4-3.7-7.4-7.8 0-4.2 2.3-7.8 7.4-7.8 5-.1 7.4 3.6 7.4 7.8zm-2.7 0c0-3.5-1.7-6-4.7-6s-4.7 2.5-4.7 6 1.7 6 4.7 6 4.7-2.5 4.7-6zM787 85.4v8.4h-2.4v-8.2c0-.8 0-1.4-.1-2.1-.1-1.7-1.1-3-3.4-3s-4.3 1.7-4.3 6.8v6.5h-2.4V78.9h2.4v2.6l.9-1.7c1.3-1 2.4-1.2 3.9-1.2 3.3 0 5.1 1.7 5.3 4.4.1.7.1 1.2.1 2.4z"/>
</svg>
