<svg xmlns="http://www.w3.org/2000/svg" viewBox="0 0 781.5 280.3" xml:space="preserve">
  <path d="M10 8.1v264.2h167.1V8H10v.1zm10 254.2v-87.1h49.8v87.1H20zm0-244.1c79.9 2.6 144.4 67.1 147 147H20v-147zm59.8 157h87c-2.5 46.8-40.2 84.5-87 87v-87zm39.1 87.1c21.1-10.1 38.2-27.3 48.2-48.4v48.4h-48.2zm48.2-148.1C150.7 69.7 115.2 34.3 70.7 18h96.4v96.2zM266.1 54.8c-3.7-.4-5.4-.4-9.2-.4h-23.4v72.4h23c3.9 0 5.6 0 9.2-.4 16.8-2.1 29.6-15 29.6-36.6 0-22-12.4-33-29.2-35zm-2.4 62.4c-2.3.4-4.7.4-8.3.4H245V63.5h10.8c3.5 0 6 .1 8.3.5 11.5 1.7 18.8 10.5 18.8 25.7 0 16.1-7.6 25.8-19.2 27.5zM307.8 71.1h11.6v55.8h-11.6zM313.5 65c3.9 0 6.8-2.8 6.8-6.7 0-3.8-2.9-6.6-6.8-6.6s-6.7 2.8-6.7 6.6 2.9 6.7 6.7 6.7zM354.4 120.1c-5.8 0-10.5-2.8-11.9-10h-11.7c1.6 12.6 10.7 18.2 23.1 18.2 12.2 0 21.7-5.4 21.7-16.2 0-9.9-6.4-14.7-18.6-17.8-8.3-2.2-12.4-4.3-12.4-9.3 0-4.2 2.6-7.2 8.1-7.2 5.7 0 9.1 3.5 10.3 9.3h11.8c-1.3-10.2-8.4-17.4-21.2-17.4-12.4 0-20.6 6.3-20.6 16.7 0 9.8 7.6 14.1 17.7 16.7 9.4 2.5 13.2 5.1 13.2 10 .1 4.7-4.2 7-9.5 7zM401 58.1h-11.4v13.3h-7.9v8.1h7.9v30.2c0 3.1 0 5.6.1 7.5.5 7.3 4.3 10.6 13 10.6 2.8 0 5.6-.2 8.5-.6v-8c-7.6.7-9.7-.4-10.1-5.9-.1-1.5-.1-2.7-.1-4.6V79.6h10.9v-8.1H401V58.1zM452.8 79.4v-9c-1.2-.4-2.3-.6-3.9-.6-2.8 0-6.1 1.2-8.6 3.1l-4.7 7.7v-9.4H424V127h11.5V98c0-13.9 6.7-19.4 17.3-18.6zM468.4 65c3.9 0 6.8-2.8 6.8-6.7 0-3.8-2.9-6.6-6.8-6.6s-6.7 2.8-6.7 6.6 2.8 6.7 6.7 6.7zM462.6 71.1h11.5v55.8h-11.5zM546 97.9c0-16.3-9.1-28.3-25.1-28.3-5.7 0-11.4 1.6-14.6 4.2l-4.2 6V49.6h-11.5v77.2h11.5v-7.6l3.7 5.6c2.8 2.2 8.6 3.5 13.2 3.5 14.4 0 27-9.9 27-30.4zm-43.9 3.3v-2.8c0-14.9 7.5-20.4 16.1-20.4 10.1 0 15.6 8.9 15.6 21 0 13.9-6.9 20.9-16.2 20.9-7.3 0-15.5-5.1-15.5-18.7zM595 97.3c0 16.2-6.1 22.4-14.2 22.4-7.1 0-11.1-4-12-10.1-.3-2.8-.4-5.9-.4-7.7V71.1H557v33.2c0 4.5.1 7 .5 9.9 1.3 7.7 8 14.2 19.5 14.2 5.6 0 9.7-.9 14.1-4.1l3.9-6.9v9.6h11.4V71.1H595v26.2zM636.6 58.1h-11.4v13.3h-7.9v8.1h7.9v30.2c0 3.1 0 5.6.1 7.5.5 7.3 4.3 10.6 13 10.6 2.8 0 5.6-.2 8.5-.6v-8c-7.6.7-9.7-.4-10.1-5.9-.1-1.5-.1-2.7-.1-4.6V79.6h10.9v-8.1h-10.9V58.1zM682.7 69.6c-16.1 0-27.3 11.9-27.3 29.5 0 19.7 11.2 29.2 26.1 29.2 12.2 0 22.8-6.3 25.2-19.5H695c-1.2 7-6.4 11.1-13.1 11.1-7.6 0-13.6-4.4-14.6-17.7h40c.2-2 .2-3.6.2-4.6.1-15.8-8.6-28-24.8-28zm-15.2 24.5c1.3-10.7 6.9-16.1 14.8-16.1 8.1 0 12.6 5.8 13.4 16.1h-28.2zM759.9 49.6v29l-3.7-5.6c-2.8-2.2-8.6-3.5-13.2-3.5-14.4 0-27 9.9-27 30.2 0 16.4 9.1 28.5 25.1 28.5 5.7 0 11.4-1.7 14.6-4.2l4.2-6.1v8.8h11.5V49.6h-11.5zm0 49.9c0 14.9-7.5 20.4-16.2 20.4-10 0-15.5-8.9-15.5-21 0-13.9 6.9-20.9 16.1-20.9 7.5 0 15.6 5 15.6 18.6v2.9zM266.1 146.8c-3.7-.4-5.4-.4-9.2-.4h-23.4v72.4h23c3.9 0 5.6 0 9.2-.4 16.8-2.1 29.6-15 29.6-36.6 0-22-12.4-33-29.2-35zm-2.4 62.4c-2.3.4-4.7.4-8.3.4H245v-54.1h10.8c3.5 0 6 .1 8.3.5 11.5 1.7 18.8 10.5 18.8 25.7 0 16.1-7.6 25.8-19.2 27.5zM330.9 161.6c-16.1 0-27.3 11.9-27.3 29.5 0 19.7 11.2 29.2 26.1 29.2 12.2 0 22.8-6.3 25.2-19.5h-11.7c-1.2 7-6.4 11.1-13.1 11.1-7.6 0-13.7-4.4-14.6-17.7h40c.2-2 .2-3.6.2-4.6 0-15.8-8.7-28-24.8-28zm-15.3 24.5c1.3-10.7 6.9-16.1 14.8-16.1 8.1 0 12.6 5.8 13.4 16.1h-28.2zM389.8 186.3c-8.3-2.2-12.4-4.3-12.4-9.3 0-4.2 2.6-7.2 8.1-7.2 5.7 0 9.1 3.5 10.3 9.3h11.8c-1.3-10.2-8.4-17.4-21.2-17.4-12.4 0-20.6 6.3-20.6 16.7 0 9.8 7.6 14.1 17.7 16.7 9.4 2.5 13.2 5.1 13.2 10 0 4.8-4.3 7.1-9.7 7.1-5.8 0-10.5-2.8-11.9-10h-11.7c1.6 12.6 10.7 18.2 23.1 18.2 12.2 0 21.7-5.4 21.7-16.2.1-10-6.3-14.8-18.4-17.9zM419.9 163.1h11.5v55.8h-11.5zM425.7 143.6c-3.9 0-6.7 2.8-6.7 6.6 0 3.9 2.8 6.7 6.7 6.7s6.8-2.8 6.8-6.7c0-3.7-2.9-6.6-6.8-6.6zM487.5 170.6l-3.7-5.6c-2.8-2.2-8.6-3.5-13.2-3.5-14.4 0-27 9.7-27 30 0 16.4 9.3 28.1 25.4 28.1 5.7 0 11.1-1.7 14.3-4.2l4.2-6.1v1.2c0 2 0 4-.1 6.4-.4 10-6.2 15.4-16.3 15.4-8.6 0-13.8-4.1-14.5-10.1l-.1-.9h-11.3l.1 1c1.2 12 9.7 18.7 25.7 18.7 16.8 0 27.3-8.5 27.9-25.4.1-3 .1-7.3.1-10.8v-41.9h-11.5v7.7zm0 20.4c0 14.9-7.5 20.4-16.2 20.4-10 0-15.5-8.7-15.5-20.8 0-13.9 6.9-20.6 16.1-20.6 7.5 0 15.6 5 15.6 18.6v2.4zM544.8 161.6c-5.6 0-9.7.9-14.1 4.3l-3.8 6.4v-9.2h-11.5v55.8H527v-25c0-17.4 6.5-23.7 14.5-23.7 7.9 0 11.2 4.4 11.8 10.7.2 2.8.2 5.2.2 7.9v30.1H565v-31.4c0-4.5-.1-7-.3-9.9-1.1-9.8-7.9-16-19.9-16z" />
</svg>
