<?xml version="1.0" encoding="utf-8"?>
<!-- Generator: Adobe Illustrator 16.0.0, SVG Export Plug-In . SVG Version: 6.00 Build 0)  -->
<!DOCTYPE svg PUBLIC "-//W3C//DTD SVG 1.1//EN" "http://www.w3.org/Graphics/SVG/1.1/DTD/svg11.dtd" [
	<!ENTITY ns_extend "http://ns.adobe.com/Extensibility/1.0/">
	<!ENTITY ns_ai "http://ns.adobe.com/AdobeIllustrator/10.0/">
	<!ENTITY ns_graphs "http://ns.adobe.com/Graphs/1.0/">
	<!ENTITY ns_vars "http://ns.adobe.com/Variables/1.0/">
	<!ENTITY ns_imrep "http://ns.adobe.com/ImageReplacement/1.0/">
	<!ENTITY ns_sfw "http://ns.adobe.com/SaveForWeb/1.0/">
	<!ENTITY ns_custom "http://ns.adobe.com/GenericCustomNamespace/1.0/">
	<!ENTITY ns_adobe_xpath "http://ns.adobe.com/XPath/1.0/">
]>
<svg version="1.1" id="Слой_1" xmlns:x="&ns_extend;" xmlns:i="&ns_ai;" xmlns:graph="&ns_graphs;"
	 xmlns="http://www.w3.org/2000/svg" xmlns:xlink="http://www.w3.org/1999/xlink" x="0px" y="0px" width="190.1201px"
	 height="92.2236px" viewBox="0 0 190.1201 92.2236" enable-background="new 0 0 190.1201 92.2236" xml:space="preserve">
<metadata>
	<sfw  xmlns="&ns_sfw;">
		<slices></slices>
		<sliceSourceBounds  width="1024.4995" height="2238.5088" y="-1540.5098" x="-215.4995" bottomLeftOrigin="true">
			</sliceSourceBounds>
	</sfw>
</metadata>
<g>
	<defs>
		<polyline id="SVGID_1_" points="978.917,2215.1777 -45.083,2215.1777 -45.083,-23.3311 978.917,-23.3311 		"/>
	</defs>
	<clipPath id="SVGID_2_">
		<use xlink:href="#SVGID_1_"  overflow="visible"/>
	</clipPath>
	<path clip-path="url(#SVGID_2_)" d="M133.8623,79.5449v12.4507h1.5962v-7.1138c0-1.3691,0.3306-2.4102,0.9927-3.125
		c0.6611-0.7153,1.5649-1.0723,2.7129-1.0723c1.1484,0,2.0522,0.3569,2.7144,1.0723c0.6606,0.7148,0.9917,1.7559,0.9917,3.125
		v7.1138h1.5732v-7.1138c0-1.3691,0.3311-2.4102,0.9917-3.125c0.6621-0.7153,1.5664-1.0723,2.7144-1.0723
		s2.0518,0.3569,2.7129,1.0723c0.6621,0.7148,0.9922,1.7559,0.9922,3.125v7.1138h1.5737V84.585
		c0-1.7021-0.4639-3.0063-1.3911-3.9111c-0.9268-0.9043-2.082-1.3564-3.4668-1.3564c-1.0332,0-1.9492,0.2432-2.7471,0.7295
		c-0.7979,0.4858-1.4102,1.1699-1.8359,2.0518c-0.3799-0.9121-0.9619-1.604-1.7441-2.0742c-0.7827-0.4717-1.6689-0.707-2.6567-0.707
		c-1.916,0-3.292,0.752-4.1279,2.2563v-2.0288H133.8623z M125.8135,79.5449v12.4507h1.5957v-7.0688
		c0-1.4443,0.292-2.4629,0.8779-3.0562c0.585-0.5933,1.4253-0.8892,2.52-0.8892h0.4561v-1.6641
		c-1.8848,0-3.1699,0.7593-3.854,2.2803v-2.0527H125.8135z M121.3203,90.4219c1.2471-1.2002,1.8701-2.7554,1.8701-4.6631
		c0-1.9072-0.5933-3.458-1.7783-4.6514c-1.186-1.1948-2.6689-1.79-4.4468-1.79c-1.7788,0-3.2612,0.5952-4.4473,1.79
		c-1.186,1.1934-1.7788,2.751-1.7788,4.6743c0,1.9229,0.5581,3.4771,1.6758,4.6636c1.1182,1.1855,2.5693,1.7783,4.3564,1.7783
		C118.5571,92.2236,120.0742,91.6235,121.3203,90.4219 M113.5903,89.5786c-0.8223-0.9131-1.2319-2.1812-1.2319-3.8081
		s0.4341-2.897,1.2998-3.8086c0.8662-0.9121,1.9463-1.3682,3.2383-1.3682s2.3867,0.4609,3.2837,1.3799
		c0.896,0.9199,1.3462,2.1816,1.3462,3.7852c0,1.6045-0.4722,2.8701-1.415,3.7969c-0.9419,0.9277-2.0601,1.3906-3.3521,1.3906
		S114.4111,90.4907,113.5903,89.5786 M106.2021,79.5449v-1.208c0-0.8823,0.2012-1.5132,0.604-1.8936
		c0.4033-0.3789,1.106-0.5708,2.1089-0.5708v-1.2759c-1.5049,0-2.5996,0.2959-3.2837,0.8896
		c-0.6841,0.5923-1.0249,1.542-1.0249,2.8506v1.208h-1.7344v1.2549h1.7344v11.1958h1.5957V80.7998h2.896v-1.2549H106.2021z
		 M101.8691,79.5449h-3.4429v-3.124h-1.5962v3.124h-1.7339v1.2549h1.7339v8.2549c0,1.9609,0.9712,2.9409,2.918,2.9409h2.1211
		v-1.2539h-1.7788c-0.623,0-1.0571-0.126-1.3003-0.376c-0.2427-0.2515-0.3638-0.688-0.3638-1.311v-8.2549h3.4429V79.5449z
		 M86.4541,92.2236c1.125,0,2.1123-0.2773,2.9644-0.832s1.4819-1.2656,1.8931-2.1328v2.7368h1.5957V79.5449h-1.5957v2.7129
		c-0.4111-0.8662-1.041-1.5732-1.8931-2.1201c-0.8521-0.5479-1.8394-0.8203-2.9644-0.8203c-1.749,0-3.189,0.582-4.3218,1.7441
		c-1.1318,1.1621-1.6982,2.6982-1.6982,4.605c0,1.9092,0.5693,3.479,1.709,4.7104C83.2842,91.6084,84.7202,92.2236,86.4541,92.2236
		 M86.6934,90.8555c-1.269,0-2.3569-0.4819-3.2612-1.4487c-0.9038-0.9644-1.3569-2.2114-1.3569-3.7402
		c0-1.5259,0.4492-2.7388,1.3452-3.6362c0.897-0.8965,1.9849-1.3457,3.2607-1.3457c1.2783,0,2.3682,0.4678,3.2729,1.4033
		c0.9043,0.9346,1.3574,2.1616,1.3574,3.6826c0,1.52-0.4531,2.748-1.3574,3.6821C89.0493,90.3877,87.9624,90.8555,86.6934,90.8555
		 M77.8125,75.1206h-1.5962v16.875h1.5962V75.1206z M64.9951,77.5605h3.2163c2.5078,0,3.7627,1.0918,3.7627,3.272
		c0,2.1831-1.2549,3.2739-3.7627,3.2739h-3.2163V77.5605z M68.2114,76.2607h-4.812v15.7349h1.5957v-6.5903h3.2163
		c1.7778,0,3.1196-0.418,4.0239-1.2539c0.9048-0.8359,1.3569-1.9385,1.3569-3.3066s-0.4561-2.4741-1.3682-3.3184
		C71.3125,76.6836,69.9741,76.2607,68.2114,76.2607"/>
	<path clip-path="url(#SVGID_2_)" d="M135.7329,54.8164h-3.4438v-3.124h-1.5962v3.124H128.96v1.2539h1.7329v8.2549
		c0,1.9619,0.9731,2.9419,2.9199,2.9419h2.1201v-1.2549h-1.7788c-0.624,0-1.0571-0.125-1.3003-0.375
		c-0.2427-0.2515-0.3647-0.688-0.3647-1.312v-8.2549h3.4438V54.8164z M117.2388,60.3584c0.0762-1.3994,0.521-2.498,1.3354-3.2964
		c0.8115-0.7988,1.8306-1.1968,3.0547-1.1968c1.2231,0,2.25,0.4058,3.0791,1.2197c0.8281,0.8135,1.2422,1.9043,1.2422,3.2734
		H117.2388z M125.1519,66.458c0.9272-0.6929,1.5962-1.5698,2.0073-2.6348h-1.71c-0.2603,0.7158-0.7271,1.293-1.4033,1.7329
		c-0.6758,0.4419-1.4941,0.6616-2.4507,0.6616c-1.2324,0-2.2515-0.4106-3.0562-1.2314c-0.8062-0.8203-1.2402-1.9453-1.3003-3.375
		h10.2622c0.061-0.3789,0.0918-0.7891,0.0918-1.2305c0-1.6416-0.5327-3.0186-1.5967-4.1279
		c-1.0649-1.1099-2.4971-1.6641-4.2983-1.6641c-1.8018,0-3.2686,0.5894-4.4019,1.7666c-1.1318,1.1787-1.6987,2.7363-1.6987,4.6748
		s0.5547,3.5,1.665,4.6865c1.1089,1.1855,2.5537,1.7783,4.333,1.7783C123.0391,67.4951,124.2241,67.1504,125.1519,66.458
		 M107.1372,61.6802l5.1309,5.5869h2.189l-6.043-6.2939l6.043-6.1567h-2.3032l-5.0166,5.5645v-9.9888H105.54v16.875h1.5972V61.6802z
		 M97.4912,54.8164v12.4507h1.5957v-7.0698c0-1.4434,0.293-2.4619,0.8779-3.0552s1.4253-0.8892,2.52-0.8892h0.4561v-1.6641
		c-1.8848,0-3.1699,0.7593-3.854,2.2803v-2.0527H97.4912z M87.6172,67.4951c1.125,0,2.1128-0.2773,2.9639-0.832
		c0.8521-0.5557,1.4829-1.2656,1.8931-2.1328v2.7368h1.5967V54.8164h-1.5967v2.7129c-0.4102-0.8662-1.041-1.5732-1.8931-2.1201
		c-0.8511-0.5479-1.8389-0.8203-2.9639-0.8203c-1.749,0-3.1895,0.5811-4.3213,1.7432c-1.1328,1.1631-1.6987,2.6992-1.6987,4.606
		c0,1.9092,0.5698,3.479,1.71,4.7104C84.4468,66.8799,85.8838,67.4951,87.6172,67.4951 M87.856,66.127
		c-1.269,0-2.356-0.4829-3.2598-1.4487c-0.9063-0.9644-1.3574-2.2114-1.3574-3.7402c0-1.5269,0.4482-2.7388,1.3452-3.6362
		c0.897-0.8965,1.9839-1.3457,3.2612-1.3457c1.2769,0,2.3677,0.4678,3.2729,1.4033c0.9038,0.9346,1.356,2.1616,1.356,3.6826
		c0,1.52-0.4521,2.7471-1.356,3.6821C90.2129,65.6592,89.126,66.127,87.856,66.127 M77.4922,51.5322l-6.293,13.4326l-6.3184-13.4326
		h-1.481v15.7349h1.5962v-12.063l5.7227,12.063h0.936l5.7231-12.1089v12.1089h1.5962V51.5322H77.4922z"/>
	<path clip-path="url(#SVGID_2_)" d="M128.8232,29.9053v12.6338h3.2148v-6.9785c0-0.9873,0.2549-1.7451,0.7642-2.2695
		c0.5088-0.5244,1.1968-0.7866,2.064-0.7866c0.8667,0,1.5508,0.2622,2.0518,0.7866c0.5029,0.5244,0.7529,1.2822,0.7529,2.2695
		v6.9785h3.1934v-7.4346c0-1.6875-0.4561-3.0059-1.3691-3.957c-0.9111-0.9492-2.0898-1.4248-3.5342-1.4248
		c-1.8101,0-3.1167,0.6924-3.9229,2.0747v-1.8921H128.8232z M118.8691,39.9395c-0.8892,0-1.668-0.335-2.3369-1.0039
		s-1.0029-1.5811-1.0029-2.7363s0.3296-2.061,0.9917-2.7139c0.6602-0.6533,1.4399-0.981,2.3369-0.981s1.6802,0.3306,2.3491,0.9927
		c0.6689,0.6611,1.0029,1.5693,1.0029,2.7241c0,1.1572-0.334,2.064-1.0029,2.7261
		C120.5381,39.6084,119.7593,39.9395,118.8691,39.9395 M118.2192,42.7212c1.7026,0,3.0327-0.7681,3.9907-2.3032v2.2114
		c0,1.125-0.2847,1.9692-0.855,2.5317c-0.5698,0.5615-1.2808,0.8433-2.1318,0.8433c-0.8521,0-1.5591-0.1631-2.1211-0.4897
		c-0.563-0.3271-0.9429-0.7725-1.1401-1.334h-3.147c0.1523,1.4736,0.7939,2.6113,1.9272,3.4087
		c1.1318,0.7979,2.6611,1.1978,4.583,1.1978c1.9229,0,3.417-0.5747,4.481-1.7217c1.064-1.1475,1.5972-2.627,1.5972-4.436V29.9053
		H122.21v1.9609c-0.9106-1.4287-2.2349-2.1436-3.9678-2.1436c-1.7319,0-3.1631,0.6045-4.2871,1.8125
		c-1.125,1.21-1.688,2.7642-1.688,4.6641c0,1.9004,0.5659,3.4629,1.7002,4.686C115.0991,42.1094,116.5161,42.7212,118.2192,42.7212
		 M109.7373,29.9053h-3.2163v12.6338h3.2163V29.9053z M109.5093,25.2983c-0.3813-0.3794-0.8403-0.5698-1.3804-0.5698
		s-1,0.1904-1.3799,0.5698c-0.3799,0.3799-0.5698,0.8442-0.5698,1.3911c0,0.5479,0.1899,1.0117,0.5698,1.3916
		s0.8398,0.5693,1.3799,0.5693s0.999-0.1895,1.3804-0.5693c0.3789-0.3799,0.5688-0.8438,0.5688-1.3916
		C110.0781,26.1426,109.8882,25.6782,109.5093,25.2983 M94.1611,35.5942c0.502,0.5103,1.106,0.8628,1.813,1.061
		s1.417,0.3652,2.1328,0.501c0.7144,0.1377,1.3223,0.3311,1.8242,0.582c0.501,0.251,0.7529,0.5938,0.7529,1.0264
		c0,0.4336-0.1821,0.7827-0.5479,1.0488c-0.3643,0.2666-0.8442,0.3989-1.437,0.3989c-1.23,0-1.9082-0.5317-2.0293-1.5962h-3.2837
		c0.0918,1.3232,0.6157,2.3379,1.5737,3.0439c0.957,0.707,2.1851,1.061,3.6821,1.061c1.498,0,2.729-0.3569,3.6938-1.0718
		c0.9663-0.7139,1.4492-1.6421,1.4492-2.7822c0-0.8662-0.252-1.563-0.7529-2.0869c-0.501-0.5249-1.106-0.8887-1.813-1.0947
		c-0.707-0.2041-1.417-0.376-2.1313-0.5122c-0.7158-0.1372-1.3237-0.3281-1.8247-0.5708c-0.502-0.2432-0.752-0.5771-0.752-1.0029
		c0-0.4263,0.167-0.7612,0.501-1.0034c0.334-0.2427,0.8057-0.3647,1.4141-0.3647c1.2158,0,1.8696,0.5317,1.9609,1.5967h3.2837
		c-0.061-1.2627-0.5547-2.2617-1.4819-2.999c-0.9277-0.7378-2.1587-1.1064-3.6948-1.1064c-1.5352,0-2.7671,0.3726-3.6938,1.1167
		c-0.9282,0.7456-1.3911,1.665-1.3911,2.7603C93.4092,34.4204,93.6602,35.085,94.1611,35.5942 M88.2559,35.1953h-5.9746
		c0.106-0.8359,0.4287-1.5049,0.9688-2.0059c0.5391-0.502,1.2119-0.7529,2.0181-0.7529c0.8052,0,1.4941,0.251,2.064,0.7529
		C87.9019,33.6904,88.21,34.3594,88.2559,35.1953 M89.0313,41.5801c1.0479-0.7598,1.7549-1.7407,2.1206-2.9404h-3.4668
		c-0.5317,0.9106-1.353,1.3677-2.4629,1.3677c-0.8203,0-1.4971-0.251-2.0293-0.7529c-0.5317-0.501-0.8359-1.1631-0.9116-1.9829
		h9.2119c0.061-0.3799,0.0918-0.791,0.0918-1.2324c0-1.915-0.5928-3.4478-1.7788-4.5947c-1.186-1.1479-2.7021-1.7217-4.5493-1.7217
		c-1.8467,0-3.3516,0.5889-4.5156,1.7676c-1.1631,1.1777-1.7441,2.748-1.7441,4.709s0.5781,3.5391,1.7329,4.7314
		c1.1553,1.1934,2.6533,1.7905,4.4922,1.7905C86.7119,42.7212,87.9819,42.3403,89.0313,41.5801 M63.3989,26.6211v15.918h5.4043
		c2.5547,0,4.6187-0.7227,6.1919-2.167c1.5728-1.4448,2.3599-3.3677,2.3599-5.7695c0-2.4014-0.7871-4.332-2.3599-5.792
		c-1.5732-1.459-3.6372-2.1895-6.1919-2.1895H63.3989z M66.6152,29.1074h2.188c1.6729,0,2.9727,0.4941,3.8999,1.481
		c0.9277,0.9888,1.3911,2.3267,1.3911,4.0142s-0.4634,3.0259-1.3911,4.0137c-0.9272,0.9883-2.2271,1.4824-3.8999,1.4824h-2.188
		V29.1074z"/>
	<path clip-path="url(#SVGID_2_)" d="M182.937,17.9927c1.7012,0,3.0332-0.7681,3.9902-2.3032v2.1211h3.1929V0.9355h-3.1929v6.2021
		c-0.9121-1.4287-2.2354-2.1436-3.9673-2.1436c-1.7339,0-3.1631,0.6045-4.2881,1.8125c-1.125,1.21-1.687,2.7632-1.687,4.6641
		c0,1.9004,0.5664,3.4629,1.6982,4.686C179.8159,17.3809,181.2339,17.9927,182.937,17.9927 M183.5859,15.21
		c-0.8887,0-1.668-0.334-2.3369-1.0029s-1.0039-1.5811-1.0039-2.7363s0.3311-2.061,0.9932-2.7139
		c0.6606-0.6533,1.4399-0.981,2.3369-0.981c0.896,0,1.6797,0.3306,2.3491,0.9927c0.6689,0.6611,1.0029,1.5693,1.0029,2.7241
		c0,1.1558-0.334,2.0649-1.0029,2.7261C185.2549,14.8799,184.4761,15.21,183.5859,15.21 M172.0132,10.4668h-5.9751
		c0.1069-0.8359,0.4302-1.5049,0.9702-2.0068c0.5396-0.501,1.2119-0.7529,2.0176-0.7529c0.8062,0,1.4932,0.252,2.064,0.7529
		C171.6602,8.9619,171.9683,9.6309,172.0132,10.4668 M172.7881,16.8516c1.0498-0.7598,1.7568-1.7407,2.1211-2.9404h-3.4648
		c-0.5332,0.9106-1.353,1.3667-2.4644,1.3667c-0.8198,0-1.4971-0.25-2.0288-0.752c-0.5322-0.501-0.8359-1.1631-0.9131-1.9839h9.2139
		c0.061-0.3789,0.0923-0.79,0.0923-1.2314c0-1.916-0.5942-3.4478-1.7803-4.5947c-1.186-1.1479-2.7007-1.7217-4.5498-1.7217
		c-1.8462,0-3.3521,0.5889-4.5151,1.7676c-1.1631,1.1777-1.7441,2.7471-1.7441,4.709c0,1.9609,0.5781,3.5381,1.7344,4.7314
		c1.1548,1.1943,2.6519,1.7905,4.4907,1.7905C170.4702,17.9927,171.7402,17.6118,172.7881,16.8516 M158.582,14.8564
		c-0.1968-0.1738-0.2969-0.4668-0.2969-0.877V7.7988h2.8281V5.1768h-2.8281v-3.125h-3.2148v3.125h-1.3462v2.6221h1.3462v6.1807
		c0,1.3672,0.3496,2.3477,1.0488,2.9414c0.6987,0.5928,1.6948,0.8896,2.9878,0.8896h2.0293v-2.6914h-1.5283
		C159.1211,15.1191,158.7803,15.0317,158.582,14.8564 M148.0693,12.1318c0,0.9883-0.2544,1.748-0.7642,2.2803
		c-0.5093,0.5317-1.1973,0.7979-2.063,0.7979c-0.8672,0-1.5513-0.2661-2.0532-0.7979c-0.501-0.5322-0.752-1.292-0.752-2.2803V5.1768
		h-3.1929v7.4102c0,1.688,0.457,3.0068,1.3682,3.957c0.9126,0.9512,2.084,1.4258,3.5127,1.4258
		c1.8232,0,3.1382-0.6919,3.9443-2.0752v1.916h3.2158V5.1768h-3.2158V12.1318z M126.9072,0.9355h-3.2153v16.875h3.2153v-2.1211
		c0.9429,1.5352,2.27,2.3032,3.98,2.3032s3.1279-0.6079,4.252-1.8247c1.125-1.2158,1.688-2.7783,1.688-4.6865
		c0-1.9077-0.563-3.4648-1.688-4.6748c-1.124-1.208-2.5532-1.8125-4.2861-1.8125c-1.7339,0-3.0488,0.7148-3.9458,2.1436V0.9355z
		 M130.2373,15.21c-0.8975,0-1.6763-0.3301-2.3384-0.9912c-0.6597-0.6611-0.9917-1.5703-0.9917-2.7261
		c0-1.1548,0.332-2.063,0.9917-2.7241c0.6621-0.6621,1.4409-0.9927,2.3384-0.9927c0.897,0,1.6758,0.3276,2.3369,0.981
		c0.6621,0.6528,0.9917,1.5586,0.9917,2.7139s-0.3296,2.0674-0.9917,2.7363C131.9131,14.876,131.1343,15.21,130.2373,15.21
		 M120.272,5.1768h-3.2158v12.6338h3.2158V5.1768z M120.0439,0.5698C119.6641,0.1904,119.2041,0,118.6641,0
		c-0.5391,0-1,0.1904-1.3799,0.5698c-0.3799,0.3799-0.5703,0.8433-0.5703,1.3911c0,0.5469,0.1904,1.0117,0.5703,1.3916
		s0.8408,0.5693,1.3799,0.5693c0.54,0,1-0.1895,1.3799-0.5693c0.3789-0.3799,0.5703-0.8447,0.5703-1.3916
		C120.6143,1.4131,120.4229,0.9497,120.0439,0.5698 M107.8662,5.1768v12.6338h3.2158v-6.3398c0-1.1709,0.2432-1.9961,0.73-2.4746
		c0.4858-0.4785,1.208-0.7192,2.166-0.7192h0.7979V4.9941c-1.6118,0-2.8428,0.8057-3.6938,2.417V5.1768H107.8662z M102.8042,14.8564
		c-0.1982-0.1738-0.2959-0.4668-0.2959-0.877V7.7988h2.8276V5.1768h-2.8276v-3.125H99.292v3.125h-1.3447v2.6221h1.3447v6.1807
		c0,1.3672,0.3501,2.3477,1.0493,2.9414c0.6987,0.5928,1.6948,0.8896,2.9868,0.8896h2.0298v-2.6914h-1.5278
		C103.3442,15.1191,103.002,15.0317,102.8042,14.8564 M86.5679,10.8657c0.5024,0.5103,1.1064,0.8628,1.813,1.061
		c0.707,0.1982,1.417,0.3652,2.1323,0.501c0.7139,0.1377,1.3218,0.3311,1.8237,0.582c0.502,0.25,0.7529,0.5938,0.7529,1.0264
		c0,0.4336-0.1826,0.7827-0.5479,1.0488c-0.3647,0.2656-0.8428,0.3989-1.437,0.3989c-1.231,0-1.9067-0.5317-2.0288-1.5962H85.792
		c0.0913,1.3223,0.6162,2.3379,1.5732,3.0439c0.959,0.707,2.186,1.061,3.6841,1.061c1.4966,0,2.7275-0.3569,3.6938-1.0718
		c0.9648-0.7148,1.4478-1.6431,1.4478-2.7822c0-0.8662-0.251-1.563-0.7529-2.0869c-0.501-0.5249-1.106-0.8896-1.813-1.0947
		c-0.707-0.2041-1.417-0.376-2.1318-0.5132c-0.7139-0.1362-1.3223-0.3271-1.8242-0.5698c-0.502-0.2432-0.7529-0.5771-0.7529-1.0029
		c0-0.4263,0.168-0.7612,0.502-1.0034c0.334-0.2427,0.8062-0.3647,1.4141-0.3647c1.2173,0,1.8701,0.5317,1.9609,1.5957h3.2842
		c-0.061-1.2617-0.5552-2.2607-1.4829-2.999c-0.9272-0.7368-2.1592-1.1055-3.6934-1.1055c-1.5356,0-2.7666,0.3716-3.6948,1.1167
		c-0.9268,0.7456-1.3911,1.665-1.3911,2.7603C85.8149,9.6904,86.0659,10.3564,86.5679,10.8657 M83.1021,5.1768h-3.2148v12.6338
		h3.2148V5.1768z M82.874,0.5698C82.4941,0.1904,82.0332,0,81.4941,0c-0.54,0-1,0.1904-1.3789,0.5698
		c-0.3804,0.3799-0.5713,0.8433-0.5713,1.3911c0,0.5469,0.1909,1.0117,0.5713,1.3916c0.3789,0.3799,0.8389,0.5693,1.3789,0.5693
		c0.5391,0,1-0.1895,1.3799-0.5693s0.5698-0.8447,0.5698-1.3916C83.4438,1.4131,83.2539,0.9497,82.874,0.5698 M63.3989,1.8926
		v15.918h5.4043c2.5547,0,4.6187-0.7227,6.1919-2.167c1.5728-1.4448,2.3599-3.3677,2.3599-5.7695
		c0-2.4023-0.7871-4.333-2.3599-5.792c-1.5732-1.459-3.6372-2.1895-6.1919-2.1895H63.3989z M66.6152,4.3789h2.188
		c1.6729,0,2.9727,0.4941,3.8999,1.481c0.9277,0.9888,1.3911,2.3267,1.3911,4.0142s-0.4634,3.0259-1.3911,4.0137
		c-0.9272,0.9883-2.2271,1.4824-3.8999,1.4824h-2.188V4.3789z"/>
	
		<rect x="0.75" y="1.4561" clip-path="url(#SVGID_2_)" fill="none" stroke="#000000" stroke-width="1.5" stroke-miterlimit="10" width="55.2979" height="88.9717"/>
	<path clip-path="url(#SVGID_2_)" fill="none" stroke="#000000" stroke-width="2" stroke-miterlimit="10" d="M21.9873,56.3281
		v33.8208c18.6841,0,33.8301-15.145,33.8301-33.8286L21.9873,56.3281z"/>
	<path clip-path="url(#SVGID_2_)" fill="none" stroke="#000000" stroke-width="2" stroke-miterlimit="10" d="M55.772,56.3018H1.2148
		V1.6885C31.3516,1.7188,55.772,26.1577,55.772,56.3018z"/>
	<path clip-path="url(#SVGID_2_)" fill="none" stroke="#222221" stroke-width="2.5" stroke-miterlimit="10" d="M-45.5825,1308.4814"
		/>
	<path clip-path="url(#SVGID_2_)" fill="none" stroke="#222221" stroke-width="2.5" stroke-miterlimit="10" d="M978.416,1308.4814"
		/>
</g>
</svg>
