<?xml version="1.0" standalone="no"?>
<!DOCTYPE svg PUBLIC "-//W3C//DTD SVG 20010904//EN"
 "http://www.w3.org/TR/2001/REC-SVG-20010904/DTD/svg10.dtd">
<svg version="1.0" xmlns="http://www.w3.org/2000/svg"
 width="1120.000000pt" height="1120.000000pt" viewBox="0 0 1120.000000 1120.000000"
 preserveAspectRatio="xMidYMid meet">
<metadata>
Created by potrace 1.11, written by Peter Selinger 2001-2013
</metadata>
<g transform="translate(0.000000,1120.000000) scale(0.100000,-0.100000)"
fill="#000000" stroke="none">
<path d="M2190 5585 l0 -5335 3410 0 3410 0 0 5335 0 5335 -3410 0 -3410 0 0
-5335z m855 4640 c740 -68 1407 -258 2065 -591 1629 -822 2799 -2377 3130
-4159 36 -193 64 -397 75 -545 3 -41 8 -99 11 -128 l6 -52 -2731 0 -2731 0 0
2745 c0 1510 3 2745 8 2745 4 0 79 -7 167 -15z m5315 -1462 l0 -1478 -68 130
c-617 1180 -1574 2137 -2757 2757 l-130 68 1478 0 1477 0 0 -1477z m-3820
-6263 l0 -1570 -835 0 -835 0 0 1570 0 1570 835 0 835 0 0 -1570z m3786 1533
c-3 -21 -8 -60 -11 -88 -4 -27 -18 -110 -31 -183 -145 -785 -563 -1504 -1175
-2024 -434 -368 -963 -628 -1522 -747 -92 -20 -351 -61 -383 -61 -12 0 -14
208 -14 1570 l0 1570 1571 0 1571 0 -6 -37z m34 -2498 l0 -605 -606 0 -607 0
92 65 c385 272 832 722 1071 1077 25 37 46 68 48 68 1 0 2 -272 2 -605z"/>
</g>
</svg>
